<?xml version="1.0" standalone="no"?>
<!DOCTYPE svg PUBLIC "-//W3C//DTD SVG 1.1//EN" "http://www.w3.org/Graphics/SVG/1.1/DTD/svg11.dtd" >
<svg xmlns="http://www.w3.org/2000/svg">
<metadata>Generated by IcoMoon</metadata>
<defs>
<font id="icomoon" horiz-adv-x="1024">
<font-face units-per-em="1024" ascent="960" descent="-64" />
<missing-glyph horiz-adv-x="1024" />
<glyph unicode="&#x20;" d="" horiz-adv-x="512" />
<glyph unicode="&#x23;" d="M194.036 54.096v118.096h-131.55v91.936l4.53 78.345 32.69 10.57c32.025 4.632 65.932 26.477 93.582 29.181l0.779 130.803c-54.317-7.725-102.605-5.873-144.662 0.316-28.538-0.72-13.361 57.663-13.467 79.287l-0.387 78.855c37.116-0.552 55.29 10.884 74.983 13.294 34.27 4.194 48.098 12.604 82.754 12.867l-3.259 170.78c-2.822 34.744-4.851 58.648 8.926 66.315 19.804 11.021 73.562-0.902 73.562-0.902l0.768-210.032c45.943-4.43 26.801 4.257 82.229 11.807l-3.020 119.743v104.642h52.321v-209.285h156.964c2.322-69.375 17.651-107.446 17.848-166.009-36.16-32.934-87.603-30.231-122.49-44.771h-52.321v-131.55h156.964v-156.964c-9.793-12.271-10.546-18.309-25.413-26.908h-65.775l-59.735-9.060-6.040-56.715c-0.113-63.704-4.699-142.227-16.338-195.815l-36.731-1.51h-26.161v236.193c-29.56-16.132-63.581-20.852-79.229-25.413v-236.193h-52.321zM325.618 513.028c-17.451 0-34.902 0-52.353 0-18.691-0.684-21.597-2.762-26.908-25.413 0-35.396 0-70.791 0-106.187 27.407-2.821 52.192 3.52 78.482 9.858 0.303 40.581 0.537 81.162 0.779 121.743z" horiz-adv-x="612" />
<glyph unicode="&#x25;" d="M91.709 258.446c0 107.236 0 214.472 0 321.708-45.821-14.361-114.431 9.053-84.311 67.127 31.712 41.12 79.225 67.407 109.533 110.668 43.424 25.598 66.166 68.591 69.418 114.55 33.116 28.291 69.042 57.191 96.002 87.5 50.629-23.008 16.35-95.96 23.187-139.818 1.382-251.411 0.3-502.85 0.644-754.273-62.755-8.217-80.725-81.781-133.608-106.846-34.709-64.245-110.29 21.050-83.712 69.731 5.97 76.388 1.436 153.117 2.848 229.652zM563.922 257.837c-11.99 104.428 20.238 211.956-12.546 314.256-29.208 26.622-109.658-18.583-111.198 27.661 24.49 50.765 83.634 70.859 112.439 118.298 58.571 32.86 47.062 117.645 104.454 152.163 28.459 25.159 70.761 80.64 109.597 42.978 32.573-45.591 2.635-104.025 10.984-155.013 4.014-207.562-2.924-415.174 1.757-622.73-23.658-30.846-60.345-68.977-49.516-104.545-51.239-20.675-68.417-93.843-129.511-94.672-66.416 17.583-27.608 99.873-35.091 147.747-0.203 57.953-3.665 115.905-1.369 173.855z" horiz-adv-x="782" />
<glyph unicode="&#x26;" d="M64.401 264.96c0 108.205 0 216.409 0 324.614-57.826-42.495-90.839 60.266-37.46 79.663 12.494 88.294 130.305 104.32 146.851 191.123 11.654 53.171 99.311 77.944 92.825 4.366 2.969-93.143-2.337-186.351 0.345-279.542-0.012-174.273 0.125-348.547 0.036-522.82-76.271-8.797-88.711-115.090-165.727-122.156-56.828 30.622-39.473 102.539-36.251 154.951-0.353 56.529-1.162 113.193-0.619 169.801zM510.266-58.119c-20.294 70.812-116.189 90.195-124.674 167.176-21.161 65.083 59.79 79.72 96.489 109.569 28.896 20.308 85.248-3.266 58.664-42.181 45.929-52.734 79.928-56.545 126.984-96.849 15.56-55.537 136.448-2.29 175.474 3.112 56.942 17.473 101.689 59.359 111.211 119.584 13.747 42.638 49.183 96.133 0.637 124.667 3.735 72.856-80.105 66.412-128.319 98.859-71.2 3.779-146.729 9.027-214.886-20.016-53.305 14.982 8.704 86.711 41.663 104.249 39.158 59.218 108.023 80.636 163.89 119.28 34.442 38.933 84.802 71.304 95.826 125.303-22.564 68.96-116.891 29.171-171.517 36.144-53.442 2.667-118.441 14.686-136.237-47.28-32.981-26.403-138.71-94.719-139.319-14.505 3.585 63.255 50.199 111.853 79.244 164.943 42.78 55.511 129.933 88.233 192.783 48.557 45.412-55.27 106.667-29.879 156.815 1.399 57.336 31.567 118.706-2.953 178.505 10.635 51.703 20.401 114.934-24.94 69.512-75.464-35.894-52.129-95.934-80.944-131.642-133.488-39.911-41.054-142.056-105.272-71.639-164.852 60.109-34.424 123.885-63.524 167.016-120.866 45.91-38.46 55.258-96.629 54.546-153.058 1.488-69.705-47.336-118.468-73.919-178.296-35.22-43.896-87-64.508-135.497-88.573-36.013-51.543-99.507-68.324-155.765-90.451-66.918-25.743-140.983-6.857-210.761-6.009-25.021 1.109-50.158 1.125-75.083-1.591z" horiz-adv-x="1161" />
<glyph unicode="&#x31;" d="M91.709 258.446c0 107.236 0 214.472 0 321.708-45.821-14.361-114.431 9.053-84.311 67.127 31.712 41.12 79.225 67.407 109.533 110.668 43.424 25.598 66.166 68.591 69.418 114.55 33.116 28.291 69.042 57.191 96.002 87.5 50.629-23.008 16.35-95.96 23.187-139.818 1.382-251.411 0.3-502.85 0.644-754.273-62.755-8.217-80.725-81.781-133.608-106.846-34.709-64.245-110.29 21.050-83.712 69.731 5.97 76.388 1.436 153.117 2.848 229.652z" horiz-adv-x="311" />
<glyph unicode="&#x32;" d="M281.431-47.214c-51.803 22.493-108.681 30.068-160.348 52.93-37.092-10.885-113.336-66.716-121.083 3.334 7.061 69.758 73.91 107.337 119.887 151.354 46.915 31.169 94.679 60.931 134.57 100.969 65.658 46.332 140.468 80.415 196.715 139.358 39.842 40.348 80.768 79.986 119.773 120.895 27.593 48.618 27.65 110.606 11.458 163.136-24.343 68.191-91.076 127.165-167.030 118.93-55.171-1.345-110.372-0.136-165.567-0.523-22.293-59.261-74.747-110.858-67.382-178.445-24.39-43.927-92.634-101.421-137.97-53.708-22.938 39.221-16.451 94.012 0.423 132.734 38.352 25.679 48.596 72.16 73.934 106.313 36.114 34.47 90.554 42.473 123.347 81.178 61.711 28.169 122.068 82.988 194.814 65.324 56.343-7.984 121.064 21.855 169.883-19.398 47.513-27.243 98.86-58.336 115.212-114.436 33.164-74.296 37.755-165.294-8.392-235.337-31.532-54.623-67.918-106.802-107.664-155.529-43.912-41.219-84.507-85.616-128.038-127.192-30.012-58.731-109.193-56.77-143.801-109.994-48.163-36.775 10.466-87.258 50.539-96.427 56.316-7.813 115.674-4.072 169.829-26.512 56.568-1.083 108.635 42.123 157.471 68.595 23.631 37.526 92.942 64.162 99.677 0.237 3.487-61.655-64.487-83.086-111.623-98.88-43.988-24.691-81.349-60.44-130.723-75.495-43.133-17.388-87.604-33.26-134.771-29.683-45.257 0.144-91.577-3.050-136.087 4.925-6.34 2.629-12.289 6.365-17.052 11.348z" horiz-adv-x="812" />
<glyph unicode="&#x33;" d="M175.235-46.12c-43.909 23.875-106.026 13.807-128.246 68.477-41.228 40.697-61.271 109.236-35.486 162.876 32.348 41.037 103.817 86.711 137.325 22.838 38.572-38.125 69.337-101.436 131.94-98.38 42.32 10.264 78.748-30.94 112.893-2.316 42.26-7.353 75.129 12.457 94.457 46.419 40.321 29.358 71.64 80.295 57.053 131.323 13.281 61.223-35.104 113.689-88.083 135.574-44.333 30.433-98.88 31.219-150.324 28.152-43.164 3.983-105.141-71.904-127.064-5.411-5.568 47.99 47.684 65.295 72.759 97.198 28.036 29.092 61.305 53.184 97.283 70.575 43.478 39.997 90.738 75.688 133.558 116.42 25.262 63.382-60.054 80.164-102.437 58.949-64.628-1.548-138.149 20.522-194.356-22.537-26.642-38.697-60.991-108.45-118.769-81.873-57.379 35.813 12.426 92.19 18.882 136.268-0.981 53.78 46.484 77.91 76.275 114.153 34.716 41.375 89.642 22.956 135.851 25.35 137.694-1.664 275.619 0.175 413.161 0.762 53.585-12.014-14.841-67.023-23.562-94.304-30.825-38.31-73.587-56.7-75.105-110.553-13.991-40.665-46.43-76.453-89.796-85.105-34.264-11.198-86.934-82.829-19.581-78.061 50.828-14.669 95.119-45.95 140.973-68.518 12.828-48.953 66.273-71.265 71.039-122.059-3.217-43.833-2.028-88.561-11.355-131.535-12.295-50.487-46.386-91.625-85.083-124.408-41.012-46.123-89.499-85.093-130.049-131.515-39.455-27.129-85.236-42.97-129.204-60.755-57.543-32.101-123.456-5.358-184.949-6.854 0 2.95 0 5.901 0 8.851z" horiz-adv-x="732" />
<glyph unicode="&#x34;" d="M395.845 76.151c0 46.923 0 93.847 0 140.77-41.99 2.716-93.228-9.026-125.095 13.161-63.002-17.776-129.232-14.711-193.621-11.963-34.467-9.311-90.986-6.881-74.027 44.41 11.964 97.581 118.803 145.52 141.453 238.751 75.216 88.851 152.174 177.689 209.139 279.803 73.463 55.647 119.004 148.913 210.735 178.916 3.294-191.694-2.564-383.426 1.48-575.114 41.828-38.857 105.762-16.659 153.938-39.101 2.373-49.387-69.544-63.534-98.96-96.259-48.388-37.014-74.003-102.178-55.478-161.508 2.738-48.927 9.552-109.508-47.453-127.766-34.158-28.378-101.848-38.928-125.111 7.967-12.33 35.506 9.955 70.938 3 107.932zM395.845 371.289c50.84 56.995 27.292 138.328 25.122 206.763 2.285 33.997 8.364 82.226-37.577 50.513-50.055-40.51-51.544-126.753-120.317-147.050-20.722-27.508-47.615-66.449-62.351-102.788 13.782-44.605 76.461-7.666 111.438-20.862 25.926 0.728 68.873-14.702 83.685 13.424z" horiz-adv-x="720" />
<glyph unicode="&#x35;" d="M136.077-33.918c-36.773 34.884-105.201 30.423-123.835 84.761-14.255 47.721-22.998 109.161 14.27 148.713 34.712 25.963 88.665 16.304 116.607-15.9 28.387-29.884 58.426-69.306 104.697-65.561 58.479-4.395 129.968-11.777 171.992 38.621 54.869 33.25 88.080 102.325 70.652 165.515 16.945 67.147-27.018 145.099-97.116 156.017-51.745 6.334-102.738-13.947-154.606-5.25-43.058 4.915-93.11 1.047-121.236-36.605-39.598-32.142-80.368 22.652-77.228 61.397 7.342 33.627 3.614 50.030 8.697 102.975-0.161 30.26 0.657 49.183 13.342 94.746 4.946 38.921 26.482 67.421 31.719 101.741 2.33 36.67 44.224 44.554 63.809 69.85 38.99 37.304 73.513 93.245 134.036 92.898 45.708-0.037 91.201-7.092 136.965-3.014 86.831 0.793 173.686 2.874 260.509 0.42 41.062-34.954-23.583-68.692-53.276-80.518-40.099-11.631-70.228-45.045-113.376-48.827-43.051-8.439-87.287 1.721-129.974 0.405-50.17-13.803-107.461 20.333-153.308-11.524-28.742-27.256-7.146-72.747-13.054-108.239 6.625-33.751-12.858-84.506 10.724-106.772 52.571-14.521 86.635 59.159 139.387 38.481 45.297-37.068 109.795-26.561 157.958-56.367 49.29-39.067 84.161-92.839 111.194-148.661 38.937-48.985 22.94-102.513-12.956-175.289-45.613-69.828-69.692-101.773-113.946-169.649-40.136-18.273-99.457-101.715-174.124-102.331-37.131-17.619-99.599-59.762-160.607-50.904-19.030 1.876-39.398 10.602-47.916 28.873z" horiz-adv-x="703" />
<glyph unicode="&#x36;" d="M73.815 43.314c-64.512 38.431-85.059 152.072-68.177 220.914-2.654 106.734-8.586 222.96 52.064 301.008 41.018 60.182 36.962 104.626 77.017 148.15 28.027 40.062 55.66 81.654 97.805 108.476 47.294 32.227 88.933 73.534 143.849 93.144 36.271 14.129 76.786 14.936 109.645 35.279 62.539 29.711 121.391-12.374 113.060-76.72-2.179-66.797-61.443-114.398-118.142-138.712-50.768-19.564-109.593 6.598-156.174-29.373-48.186-27.23-77.755-76.225-100.845-124.331-31.944-27.616-50.036-125.419 16.844-102.894 49.921 39.37 76.96 54.849 142.746 69.869 49.674 25.575 92.022 5.736 144.495 9.424 71.472-10.718 119.338-22.328 148.577-78.9 45.193-83.281 47.25-152.953 0.268-229.189-32.964-66.763-66.010-137.934-128.628-182.3-38.998-37.958-70.484-96.994-131.851-98.691-66.69-9.415-86.632-42.773-156.712-29.308-76.213 2.364-155.65 55.581-185.843 104.156zM497.786 273.904c11.081 80.154-186.273 123.973-250.669 76.907-59.788-10.211-78.644-226.314-17.623-236.984 47.044-11.211 157.010-10.576 206.090 17.843 18.963 11.319 72.897 121.918 62.202 142.234z" horiz-adv-x="711" />
<glyph unicode="&#x37;" d="M297.817 132.973c9.397 71.62 16.423 142.769 26.239 203.187 9.393 57.811 33.035 82.348 71.175 126.968 35.643 41.699 54.727 85.995 71.191 134.558-8.981 77.32-105.855 30.152-157.151 42.443-73.348-0.055-146.696 0.196-220.043 0.047 0.658 65.76-134.144 83.65-73.575 159.035 48.118 32.669 70.003 85.69 93.085 128.393 56.144 24.626 91.388-28.107 138.452-39.701 96.791-23.845 173.395-20.16 270.978 1.273 59.010 12.961 99.426 27.754 139.096 41.488 24.196 8.377 32.729 9.648 61.015 28.005 61.968 15.544 39.481-109.74-7.683-137.411-48.488-34.141-36.443-107.81-95.915-135.971-59.486-23.861-59.404-102.937-92.323-148.215-32.079-44.123-19.821-88.285-42.935-153.88-24.923-69.543-3.166-111.391 30.707-165.090 13.473-63.594-31.297-110.146-61.344-159.484s-66.511-70.532-82.33-122.619c-87.952 3.206-66.306 137.34-68.636 196.973z" horiz-adv-x="756" />
<glyph unicode="&#x38;" d="M216.016-52.963c-31.571 8.395-49.121 3.96-88.516 36.986s-96.846 67.526-103.61 120.051c-16.285 38.497-36.798 83.107-13.201 123.47 20.589 32.546 15.321 65.017 32.125 93.288 20.33 34.202 35.903 67.45 80.57 88.071 43.868 29.318 79.288 92.807 19.754 127.448-27.999 30.938-44.439 68.289-44.274 106.838 0.206 48.17 42.297 86.801 56.464 133.023 32.579 42.373 73.011 79.073 111.278 116.531 38.278 29.406 87.544 42.219 131.675 52.904 51.837 30.323 118.72 8.026 164.172-24.516 53.733-27.347 47.425-88.803 69.665-135.923 11.357-50.635 16.156-111.809-20.621-153.661-43.244-29.233-32.503-86.28 17.573-100.161 48.802-18.037 62.255-74.516 79.618-116.253 0-54.696 15.799-111.723 0-164.088-11.233-37.232-40.299-66.779-64.527-97.2-29.613-37.182-61.973-72.614-98.144-103.455-40.091-34.183-75.403-79.706-130.42-89.288-37.706-13.649-66.12-12.079-111.972-23.73-27.694-4.021-56.037 1.27-87.608 9.664zM441.090 68.571c51.456 9.716 75.197 56.585 91.698 97.276 22.433 35.637 38.245 76.323 18.671 116.943-7.024 60.887-57.548 93.641-94.391 135.984-38.134 43.237-102.682 28.413-152.732 21.513-44.465-20.149-85.923-45.997-115.43-87.169-40.151-48.144-39.875-126.917-2.942-177.073 34.464-34.303 68.267-73.182 116.232-87.769 37.481-9.2 66.684-52.033 108.384-33.929 10.749 3.326 21.063 8.106 30.509 14.223zM465.443 628.062c15.839 48.171 12.203 113.327-22.308 150.48-31.746 34.176-91.247 44.016-136.538 30.658-56.915-29.932-45.317-108.917-8.659-150.386 33.174-46.517 92.611-32.765 134.044-64.406 21.188-15.26 28.519 18.627 33.461 33.655z" horiz-adv-x="716" />
<glyph unicode="&#x39;" d="M279.922-61.163c-2.551 130.209-1.101 260.447-1.485 390.67-42.087-20.721-90.57-57.955-138.921-34.084-43.445 24.532-104.139 45.031-110.342 103.495-20.639 22.932-32.302 55.912-26.701 88.267 4.998 32.604 2.345 65.163-2.473 97.386 3.366 50.43 42.282 87.818 60.762 132.807 28.867 45.398 82.943 67.466 110.535 113.971 36.86 37.76 75.030 77.041 125.557 95.654 41.832 32.417 93.887 32.651 143.721 31.233 44.83 8.282 94.644-12.697 103.16-60.703 14.903-36.651 30.090-73.757 53.846-105.742-0.96-47.949-10.399-95.538-6.397-143.58-3.983-47.33-48.053-76.629-57.237-122.515-18.174-53.7-50.056-100.432-76.705-150.058-38.449-55.386-37.156-136.386 11.097-185.587 23.099-47.521 9.666-107.898-20.621-148.899-32.137-35.012-83.608-53.549-100.746-101.086-21.607-8.913-44.745-0.245-67.050-1.229zM433.97 582.289c5.887 53.708-41.316 97.778-62.953 144.225-27.228 39.080-95.488 58.358-129.003 15.65-37.25-36.761-55.54-86.904-77.129-133.412-3.66-53.302 50.904-82.444 88.784-108.429 55.019-25.132 160.156 34.484 180.301 81.966z" horiz-adv-x="598" />
<glyph unicode="&#x41;" d="M0-50.646c51.787 107.4 90.516 220.505 136.093 330.506 16.583 62.453 38.216 123.095 64.1 182.234 21.792 63.453 43.13 127.169 72.919 187.414 21.819 60.184 35.475 123.483 66.341 180.111 12.272 50.746 40.922 93.084 87.579 118.189 68.115 48.685 73.648-61.669 101.737-98.793 33.111-50.188 39.825-111.606 73.411-161.461 40.211-47.13 34.109-120.205 84.502-160.404 33.246-120.166 121.224-216.627 152.314-337.663 18.237-45.52 74.31-94.193 34.935-144.621-32.679-31.578-69.387-96.687-117.544-89.76-15.465 53.531-34.211 105.264-64.823 153.674-29.074 50.923-20.221 138.533-97.943 143.811-36.403-5.271-60.444-9.297-95.24 4.967-56.565 2.031-109.019-34.916-166.24-20.774-44.555 4.543-106.199 1.499-123.965-48.307-18.691-71.526-50.416-139.058-74.017-208.737-26.511-41.497-92.582-57.405-134.159-30.386zM549.509 441.518c-35.014 61.491-60.269 127.926-94.806 189.667-75.314 121.462-111.939-100.227-135.252-176.147 13.62-66.437 94.514-27.266 140.227-35.761 24.966 9.503 102.808-24.017 89.831 22.241z" horiz-adv-x="888" />
<glyph unicode="&#x42;" d="M131.261-50.289c-41.53 21.829-125.461 16.134-125.732 78.369 13.281 38.667 22.003 77.342 17.033 118.376 0.715 205.45-0.068 410.901 0.204 616.351-49.87 24.592-6.582 80.495 23.294 102.721 46 25.38 84.897 63.317 133.84 83.752 47.644 21.412 100.396-0.559 150.199 8.603 60.825 11.207 112.631-24.44 163.361-51.535 68.854-43.196 115.361-131.258 90.005-212.164-12.029-53.058-56.602-91.259-85.359-134.828-37.562-52.43 44.472-57.056 67.362-87.225 31.338-38.734 83.368-66.697 88.387-120.783 9.99-63.991-17.435-125.12-37.822-184.193-10.529-33.581-40.743-52.574-61.176-78.676-59.41-71.217-151.654-100.502-236.733-128.207-55.523 16.956-104.063-38.067-160.173-20.915-9.385 1.55-19.52 3.582-26.689 10.354zM489.119 131.605c21.734 46.872 15.134 100.788 4.321 149.542-35.627 40.637-78.441 84.019-134.998 89.399-45.979 20.172-97.739 39.273-145.745 12.652-59.74-17.332-32.24-86.084-40.036-130.748-0.511-51.85-11.416-104.975-0.097-156.177 27.919-25.478 73.818-20.613 110.021-25.979 67.232-1.879 144.713-0.047 196.571 48.871 3.664 3.856 7.012 8.014 9.963 12.441zM309.4 536.633c44.189 16.871 107.691 22.167 125.125 74.010 18.007 60.757-20.054 120.023-61.021 161.61-30.354 50.782-85.852 62.617-140.050 56.663-26.626 5.861-68.106 0.627-57.809-34.801 0-104.548 0-209.095 0-313.643 43.189 21.909 89.7 36.186 133.754 56.16z" horiz-adv-x="656" />
<glyph unicode="&#x43;" d="M416.688-52.039c-87.647 21.016-186.25 34.186-244.263 111.693-76.6 66.335-140.168 151.657-157.577 253.642-21.199 114.349-26.616 239.468 31.194 344.705 42.673 96.109 109.946 183.706 206.011 230.987 84.701 45.024 178.624 79.836 276.121 68.488 78.022 9.783 154.364-9.531 222.571-46.545 57.76-18.464 149.537-61.936 103.984-136.647-39.249-81.783-124.019-27.068-174.666 8.972-94.446 36.503-199.074 16.8-297.916 23.497-114.107-9.128-213.652-101.839-225.506-216.736-1.754-81.321-4.502-163.493 2.199-244.769 37.602-69.023 60.882-149.221 129.928-195.332 70.451-56.316 163.266-78.937 251.729-82.995 84.045 6.436 157.754 54.671 230.876 92.672 56.448 22.946 85.456 111.304 156.455 91.752 31.768-67.359-49.038-119.389-86.515-164.365-107.256-91.178-247.306-167.992-392.526-147.696-10.897 2.097-21.639 4.983-32.099 8.678z" horiz-adv-x="935" />
<glyph unicode="&#x44;" d="M22.207 107.534c0 55.559 0 111.118 0 166.676-54.106 47.548 19.808 124.778-21.801 184.524-1.181 115.582 0.665 231.69-0.086 347.494 71.569 32.12 97.723 132.981 184.69 134.991 84.086 38.954 167.237 6.986 251.778-4.075 97.798-6.81 190.4-54.922 261.831-120.802 60.529-61.988 116.995-134.859 125.543-224.315 38.15-68.336 7.872-143.937-3.216-214.679-19.721-84.777-75.042-157.039-129.74-222.727-54.63-50.748-122.449-84.030-183.417-126.297-64.352-30.425-134.686-46.527-201.348-71.645-57.474-21.502-118.772-18.439-178.489-14.423-56.793-17.776-127.626 1.153-105.747 71.984 0 31.098 0 62.196 0 93.293zM377.446 106.692c78.642 13.781 158.013 39.663 213.626 99.988 54.609 53.234 90.85 127.394 98.343 203.019-5.959 66.391-22.346 134.41-55.272 192.867-54.186 69.857-126.568 130.976-212.128 157.752-67.346-8.269-128.628 39.797-196.678 26.463-76.251-25.546-46.753-120.077-47.654-179.402-0.164-142.988-0.517-285.984 0.21-428.978-27.368-86.041 86.75-94.371 143.711-83.671 19.128-0.44 39.266 1.5 55.842 11.961z" horiz-adv-x="843" />
<glyph unicode="&#x45;" d="M22.713 336.057c-16.961 185.392 20.845 374.419-22.391 557.454-5.013 45.646 49.565 68.545 88.54 65.287 66.805-4.321 133.698-7.158 200.701-5.105 83.69 0.916 167.454 2.742 251.090-1.424 38.555 20.098 103.322 0.355 93.687-51.623-7.489-32.26-2.396-65.967-3.884-98.928-92.584-49.436-198.899-3.225-296.765-24.616-57.479-3.979-121.718 25.167-173.995-9.34-31.273-24.381-24.586-68.398-30.638-103.458-1.473-42.206-0.126-99.326 45.245-118.644 58.45-23.381 120.936 4.942 181.331-2.044 80.806-1.495 161.683-3.609 242.466-0.026 11.088-39.733 34.377-102.106-12.722-127.228-58.067-9.6-117.814-0.080-176.522-4.009-84.842-0.85-170.239 10.459-254.739 0.082-24.272-68.457-28.336-143.239-23.388-215.309-2.637-45.35 29.553-84.085 75.763-83.959 134.697-15.009 268.115 23.155 402.639 21.714 30.833 6.832 19.25-23.885 21.323-41.909 0-45.174 0-90.348 0-135.521-177.655-0.532-354.582-27.097-532.311-20.355-43.072-1.776-95.302 15.791-91.619 68.412-9.296 110.311 16.228 220.259 16.189 330.549z" horiz-adv-x="635" />
<glyph unicode="&#x46;" d="M4.090 445.314c0 168.227-9.203 489.787 0 504.682 7.469 12.088 429.853 14.533 584.436 0 35.928-3.378 39.881-75.705 24.711-121.448-22.532-50.184-44.724-54.674-80.759-50.883-49.606-0.913-89.823 11.582-147.365 15.621s-130.655-17.78-196.207-21.939c-16.518 0-33.035 0-49.553 0-30.793-38.816-24.594-88.931-24.9-134.397 5.837-36.185 18.879-101.083 67.228-91.017 127.906 1.837 255.922 0.343 383.877 0.827 24.926-37.553 36.787-88.802 17.873-130.95-34.43-41.77-93.234-25.015-140.143-26.435-92.79 1.911-185.597-0.604-278.394 0.414-36.719 11.863-23.691-34.96-25.541-56.768 0-33.39 0-66.781 0-100.171-2.942-97.132 1.921-112.56 1.68-181.389 3.845-39.584 1.898-102.207-47.191-111.268-41.814-9.382-83.626-7.737-91.603 55.604 6.359 47.766-0.343 95.849 1.851 143.972 0 101.848 0 203.697 0 305.545z" horiz-adv-x="622" />
<glyph unicode="&#x47;" d="M378.554-50.679c-65.054 20.609-134.372 39.998-182.015 92.335-46.547 29.097-76.002 74.169-111.569 113.672-39.212 51.35-61.247 114.098-78.612 175.621-12.302 69.6-2.449 140.803-5.238 210.782 26.955 48.359 19.877 103.963 49.936 149.493 38.438 69.025 99.257 121.853 158.856 172.22 44.855 38.073 100.332 58.212 156.104 74.182 71.471 35.092 152.283 17.077 228.53 22.051 70.13-28.49 151.097-41.928 204.868-99.917 25.603-27.809 55.622-50.914 83.732-75.678 33.569-48.552-7.091-107.666-45.976-138.861-36.962-33.535-90.579-9.191-117.764 24.899-22.059 33.296-53.989 55.953-86.949 77.764-62.82 44.803-141.664 64.667-218.288 55.546-42.227-0.342-88.722 9.682-125.205-18.652-53.387-38.435-107.857-85.911-121.886-153.401-16.788-57.651-5.049-117.643-12.568-176.476-5.639-42.477 10.311-82.094 28.366-119.294 33.378-70.417 82.833-137.917 157.11-168.522 48.97-20.045 97.868-44.632 150.449-52.596 51.522 0.54 103.047 1.362 154.622 0.922 42.985 37.674 113.997 39.824 131.155 104.14 37.148 50.234-5.161 116.422-65.192 97.778-65.491 2.262-132.182-12.109-196.827 1.591-51.106 41.8 24.611 107.727 62.509 131.174 53.628 34.252 117.234 18.539 176.802 21.497 52.686 0 105.372 0 158.057 0 34.748-55.904 29.426-126.708 12.036-187.533-27.029-39.858-10.424-95.209-46.020-132.095-41.185-64.642-98.377-117.907-157.227-166.098-53.63-37.556-121.071-59.277-186.507-45.895-50.506 5.064-109.49-17.009-155.29 9.35z" horiz-adv-x="937" />
<glyph unicode="&#x4d;" d="M15.956-47.566c-11.791 123.931 15.699 267.881 64.418 375.961 7.733 55.587 26.526 111.346 50.179 163.038 16.276 56.554 82.258 27.882 80.892-20.932 24.378-47.082 62.017-94.517 50.899-150.936 0.84-40.817 32.343-65.413 25.004-109.169 9.898-26.725 28.607-86.683 59.703-41.031 14.284 48.046 26.124 98.827 45.506 147.905 6.308 50.225 27.025 96.742 39.46 145.835 10.357 38.676 76.263 120.073 97.358 47.41 19.257-52.965 25.737-109.685 45.255-160.728 18.087-48.704 29.037-99.525 49.055-147.564 19.765-48.438 17.497-101.603 40.615-148.723 5.149-19.789 7.733-91.193 26.792-39.173 15.185 57.807 34.462 115.704 63.4 167.79 5.126 41.849 30.468 76.049 35.288 116.728 37.297 50.614 35.061 107.244 63.704 159.884 2.091 57.158 84.595 93.929 98.653 22.469 18.936-57.901 55.53-107.633 80.472-162.985 23.021-45.246 45.939-90.703 66.318-137.244-5.864-47.784 61.81-68.53 49.779-119.502 22.701-30.353-12.147-40.907-13.671-71.957-30.65-50.282-64.724 5.515-70.445 40.263-27.144 37.44-30.889 108.202-92.598 92.867-55.722-2.902-111.628-0.467-167.461-1.249-33.107-48.919-27.693-119.647-78.342-157.465-37.914-9.368-84.558 41.414-106.168-15.939-51.023-5.794-36.873 72.733-59.949 102.343-9.422 46.324-29.183 86.443-42.836 131.418-13.736 39.709-4.092 90.164-46.333 113.452-38.185-19.007-19.951-69.925-44.089-98.123-9.3-54.025-51.112-104.954-58.168-160.060-29.557-23.049-41.764-92.364-88.184-73.476-27.526 28.965-43.391 68.726-40.478 108.787-11.275 43.338-33.651 81.329-42.030 127.052-5.067 27.626-2.591 85.376-46.451 69.513-36.844-101.866-41.608-199.986-77.516-290.083-5.751-12.446-52.513-56.393-58.037-26.383zM961.875 256.433c-26.488 29.608-31.886 93.78-65.489 105.318-33.859-23.321-23.441-76.157-45.987-105.097 14.074-42.396 84.493-23.86 112.154-13.984l0.647 6.945z" horiz-adv-x="1175" />
<glyph unicode="&#x61;" d="M21.355 43.766c0 53.79 0 107.582 0 161.372 60.973 11.389 75.047 98.535 141.708 97.497 46.362 2.909 106.715 9.314 136.248-35.177 44-67.522-15.261-152.047 27.116-220.094 28.77-82.495-20.895-102.113-74.558-55.7-43.151 47.258-76.157-11.252-119.289-20.031-46.808-58.832-126.178 42.377-111.226 72.135zM182.908 75.803c22.657 41.903 62.506 98.23 15.203 139.128-53.39 44.918-96.447-44.385-81.992-91.058-8.275-39.209 12.238-108.475 62.65-75.722 7.29 7.068 8.592 18.828 4.139 27.652zM410.071-5.433c-51.554 36.179-51.667 127.934 3.641 160.592 31.45 47.756 46.39 111.185 111.8 123.752 32.84 39.678 109.852 1.017 114.656 63.039 11.475 39.743 45.901 67.493 27.64 113.801-16.106 47.010 80.49 95.033 65.778 24.935-0.28-145.7-0.994-291.41 1.013-437.1-49.763 1.194-76.957-107.672-126.977-48.965-41.926 21.34-72.932-34.096-117.858-17.928-26.962 0.285-57.681-0.19-79.695 17.875zM572.292 59.694c50.387 34.496 43.173 113.57 11.047 157.962-32.855 25.727-76.572-5.297-102.566-25.961-18.811-29.634-2.088-63.97-6.055-96.329-5.548-33.503 47.356-33.133 66.565-55.862 15.295-7.532 27.471 6.563 31.010 20.187zM798.743-5.209c-53.432 28.999-37.981 101.046-31.52 150.027 22.926 52.438 73.13 85.154 114.912 121.282 41.998 38.166 133.129 14.858 145.162 79.256 8.273 52.462-25.022 117.172 13.553 160.247 32.137 31.234 95.73 31.237 83.046-27.064-4.211-42.734 0.333-85.435-1.039-128.098-24.065-24.634-45.526-55.009-32.206-94.366-0.109-81.421-0.124-163.123-0.1-244.666-31.128-19.347-89.273-55.393-109.049-3.259-53.909 7.139-97.455-50.88-152.158-32.288-12.157 1.737-24.203 8.107-30.599 18.928zM928.537 59.694c27.149 29.357 63.782 81.989 48.563 119.326-37.265 45.861-126.246 36.147-144.343-22.714-4.258-52.105 49.185-93.472 87.833-114.626 6.040 3.685 6.815 11.784 7.946 18.014z" horiz-adv-x="1177" />
<glyph unicode="&#x62;" d="M33.39 449.863c0 169.921 0 339.842 0 509.763 74.086 7.374 92.364-96.41 82.793-133.704 0.214-40.611-11.024-81.231-2.95-121.655 0.188-66.487 0.309-132.974 0.539-199.46 90.828 14.361 231.361 16.978 266.758-78.103 5.58-38.28-1.727-77.148 0.991-115.748 8.577-83.506-32.018-174.53-94.974-210.394-67.023-46.441-159.137-161.537-217.386-164.392-49.636-3.851-34.886 58.371-35.771 89.472 0 141.407 0 282.814 0 424.22zM300.677 248.138c25.146 42.844-18.135 85.237-56.512 98.892-37.732 29.687-75.915-2.534-113.308-12.727-36.737-15.219-18.606-50.734-18.103-78.917 0-42.011 0-84.023 0-126.034 75.946 0.685 131.36 55.779 187.923 118.785z" horiz-adv-x="415" />
<glyph unicode="&#x64;" d="M108.868-34.066c-79.211 7.916-83.51 96.779-74.581 157.325-7.246 69.343 61.065 115.043 75.537 184.907 30.262 84.115 141.956 79.623 176.050 156.158-20.412 69.515 33.489 130.879 46.184 196.373 21.092 58.102 137.644 22.732 75.157-27.407-17.404-67.984 47.55-134.579 15.067-203.008-34.917-60.623-10.905-129.517-17.003-195.262 6.258-54.72 54.834-104.114 39.012-160.416-42.017-29.418-53.722-121.003-124.412-94.676-33.588 8.512-48.426 111.053-77.88 41.080-18.044-14.976-105.878-77.644-133.135-55.076zM215.079 127.481c73.040 7.316 109.47 133.165 16.507 125.986-41.222-3.184-75.944-18.595-79.199-51.961-2.293-23.505 14.767-78.825 62.693-74.025zM529.187-34.066c-47.035 29.218-17.583 90.248-25.304 134.553 0 58.002 0 116.007 0 174.009 45.718 30.207 26.064 108.203 85.967 125.89 69.244 47.313 72.819-80.243 62.878-124.299 0.366-74.567 0.075-149.134 0.166-223.702-34.882-33.089-60.336-85.775-105.448-93.517-6.512-20.291-16.921-4.017-18.256 7.062zM1196.919 76.99c0 41.001 0 82.002 0 123.003-86.827-2.038-68.177-126.051-129.781-168.258-29.487-67.523-134.448-61.178-119.482 23.159 3.706 65.143 1.051 130.533 1.849 195.816-69.367-24.56-49.619-116.842-84.36-169.824-5.792-63.134-111.309-148.474-138.434-55.53-0.942 65.738 3.712 131.726 0.050 197.736-13.753 65.197 31.84 111.279 67.335 159.883 27.429 45.766 79.635 38 83.215-17.37 44.915-32.168 96.129 77.414 155.326 57.875 30.853-36.766 95.108-107.851 140.584-42.251 36.498 49.043 130.294 32.438 142.91-30.606 14.795-53.656 40.685-94.496 29.081-154.079-0.080-56.252 0.099-112.504 0.012-168.756-47.14-17.744-103.371-126.517-148.836-49.974-7.731 32.94 8.735 66.303 0.528 99.176zM1493.533-34.066c-68.244 28.847-55.548 113.953-14.504 159.673 43.685 58.723 155.38 25.263 141.624-53.4-11.789-47.554-74.662-145.667-127.122-106.274zM554.054 448.31c-53.638 56.573 7.605 162.134 83.323 151.851 89.904-17.333 8.219-118.373-37.875-141.323-13.662-7.743-29.604-12.869-45.448-10.526z" horiz-adv-x="1653" />
<glyph unicode="&#x6d;" d="M58.996-10.152c10.003 44.721 16.297 102.995 23.059 135.602 7.769 37.47 27.028 60.935 27.713 103.124 0.741 45.517 33.578 132.42 33.578 132.42s12.299 62.328 23.968 93.048c9.867 30.251 21.184 60.524 36.185 88.484 36.96 39.94 84.313-7.357 86.886-48.361 26.746-37.887 33.886-82.972 44.465-125.573 14.665-43.618 11.377-92.065 34.001-133.25 7.207-26.788 16.924-97.824 49.948-81.024 8.491 51.196 32.832 97.64 45.114 147.864 14.495 43.946 28.858 87.765 38.131 133.166 11.896 37.487 18.472 80.108 46.276 109.643 34.67 40.785 88.471 8.333 86.706-39.649 3.609-47.467 14.251-93.038 33.062-136.7 28.243-85.097 85.795-254.861 85.795-254.861s29.28-73.602 10.274-109.842c-17.241-18.821-54.447-72.769-79.219-39.397-18.33 45.090-31.68 93.415-49.151 139.461-20.806 50.353-16.71 108.002-44.342 156.165-5.441 21.882-51.588 42.719-60.059 3.073-13.463-41.46-19.464-85.451-45.769-121.763-21.043-41.099-53.086-126.798-53.086-126.798s-48.057-76.663-85.246-54.387c-7.666 29.731-21.093 58.953-30.359 89.118-13.94 42.696-17.063 87.967-34.522 129.627-0.771 21.094-25.805 114.028-64.828 82.644-14.965-40.748-23.479-86.747-41.383-128.676-22.495-42.487-9.046-100.202-44.821-135.499-10.582-27.745-78.199-73.275-72.939-16.781l0.929 4.479zM832.418 254.951c0 96.61 0 193.219 0 289.827 32.982-0.373 101.045 48.748 98.263-15.756-1.453-177.738-0.6-355.483-0.513-533.22-32.808-0.588-85.425-58.71-97.915 0.965-5.379 41.86 3.388 84.106 0.231 126.254-0.007 43.975-0.227 87.954-0.067 131.929z" horiz-adv-x="1017" />
<glyph unicode="&#x73;" d="M442.177-37.107c-37.164 16.485-92.34 15.084-104.217 63.581-18.030 42.619 0.706 89.049-6.291 133.25-1.014 78.395 0.148 156.799-0.334 235.199 27.679 1.255 82.674 29.549 66.651-23.506-2.862-91.040-0.147-182.128-1.274-273.187 32.453-34.981 67.296-85.136 120.773-81.515 56.538 4.793 87.648 64.454 81.257 116.513-3.514 80.014-0.885 160.164-1.639 240.282 24.091 10.597 73.778 62.14 68.093 2.55-4.678-104.289-0.747-208.693-1.963-313.031-44.004-19.012-66.724-73.612-117.795-78.494-29.43-16.67-72.071-58.119-103.258-21.641zM65.302-14.75c-38.015 14.342-63.335 71.73-16.253 89.57 39.829 24.838 67.15-43.811 107.694-49.005 21.015-15.533 45.913-2.274 54.23 13.945 59.824 7.916 25.354 93.709-18.111 103.746-43.401 13.227-87.070 23.338-128.559 40.507-58.694 35.514-65.356 136.762-4.3 173.593 34.66 45.518 93.618 63.025 148.668 62.718 38.476-3.411 85.696-45.266 70.237-86.354-23.303-20.985-55.131-26.758-78.629-3.948-33.283 7.513-69.362 37.418-102.962 16.044-20.721-21.599-5.781-55.996-10.336-83.397 63.472-8.5 118.645-43.874 177.569-66.382 31.486-16.227 39.625-54.94 46.454-86.828 4.839-35.915-19.347-69.217-53.114-79.894-38.41-22.671-72.717-62.288-121.606-57.329-23.997 0.121-49.549 0.944-70.98 13.018zM730.195-24.932c-24.525 27.82-45.090 91.546 0.978 108.811 34.076-26.281 72.767-44.708 111.172-57.861 21.431 1.483 46.569 20.657 61.765 24.976 15.524 39.339 0.912 88.394-46.377 91.543-42.635 16.007-87.637 25.433-129.973 41.823-46.592 25.201-53.44 87.757-28.723 130.81 23.55 58.644 82.627 95.427 143.258 104.778 36.495 1.833 76.374-9.396 102.487-35.751 34.233-37.095-24.16-77.219-58.99-54.837-35.245 13.115-77.005 38.707-112.957 13.168-38.415-24.067-15.357-71.078 17.697-86.257 31.303-18.383 68.483-22.191 100.762-38.356 53.743 0.726 89.607-56.257 85.452-105.837 1.673-51.913-47.422-82.368-82.149-112.303-47.776-35.772-109.088-25.59-164.399-24.699z" horiz-adv-x="994" />
<glyph unicode="&#xe600;" d="M0 587.724v-36.995h299.915v-242.445c1.382-0.141 584.707 1.861 584.707 1.861s3.527 165.43 3.723 240.584h299.915v36.995z" horiz-adv-x="1188" />
<glyph unicode="&#xe601;" d="M301.355 585.936v-238.7h-301.355v-37.173h1193.965v37.173h-301.355v238.7c0.309-2.437-591.255 0-591.255 0z" horiz-adv-x="1194" />
<glyph unicode="&#xe602;" d="M200.492-53.562c-64.898 31.088-103.73 95.258-154.092 143.474-24.071 39.99-47.758 83.672-45.334 131.816-7.317 43.639 23.68 98.905 72.903 93.725 52.671-14.392 54.166 59.524 11.826 72.449-34.699 36.123-51.017 89.241-55.411 129.548 2.166 49.912 35.166 97.38 61.001 131.571 27.952 30.898 72.455 37.792 102.226 66.335 14.037 32.645 43.271 73.030 19.028 107.678-46.917 31.176-58.295 90.481-84.496 136.966 61.096-11.971 102.715-63.68 159.275-86.202 42.026-19.274 88.096-50.272 90.267-101.461 5.522-49.692-1.978-105.925-41.525-140.804-24.596-33.074-67.64-42.51-91.942-76.149-18.653-25.854-37.892-54.283-43.035-86.278-1.407-44.57 20.85-85.379 30.932-127.836 23.495-45.597 68.895-74.27 97.338-116.559 14.011-19.183 63.523-70.643 4.931-49.542-46.682 9.559-72.919 32.958-107.135 27.705-38.089-17.367-61.104-61.128-53.235-102.408 3.11-42.66 27.936-79.301 57.247-108.621 52.615-54.861 32.962-67.789-30.771-45.408z" horiz-adv-x="379" />
<glyph unicode="&#xe603;" d="M282.968-24.016c8.756 69.711 30.311 120.712 41.704 170.763 10.864 50.381 26.268 94.672 43.139 159.085 21.139 72.936 20.122 56.954 39.931 138.952 36.517 49.223-49.363 75.632-101.629 43.137-51.661-15.104-88.309-5.876-140.625-4.854-54.028 13.362-103.12 45.624-140.182 86.47-36.333 59.961-32.006 111.483 3.156 196.396 38.38 75.906 111.525 86.772 167.609 71.985 69.938-13.542 123.029-82.943 130.012-157.168 1.202-72.291-78.197-63.909-47.091-106.212 51.77-21.663 98.816 36.772 137.841 64.774 35.156 45.271 49.719 102.091 76.937 151.813 18.857 48.217 29.671 99.248 35.598 150.58 34.354 54.001 111.793-24.832 67.939-65.267-22.644-63.85-38.366-129.293-56.611-195.174-36.075-108.444-39.56-128.41-70.804-238.861-7.502-40.963-21.218-60.783-25.921-122.314-21.96-50.6-44.578-118.896-50.729-174.318-6.873-42.663-19.246-75.617-34.951-115.691-9.595-36.057-0.499-81.105-43.989-93.064-23.787-6.065-47.022 16.009-31.334 38.967z" horiz-adv-x="610" />
</font>
</defs>
</svg>
