<?xml version="1.0" encoding="UTF-8" standalone="no"?>
<!-- Created with Inkscape (http://www.inkscape.org/) -->

<svg
   xmlns:dc="http://purl.org/dc/elements/1.1/"
   xmlns:cc="http://creativecommons.org/ns#"
   xmlns:rdf="http://www.w3.org/1999/02/22-rdf-syntax-ns#"
   xmlns:svg="http://www.w3.org/2000/svg"
   xmlns="http://www.w3.org/2000/svg"
   xmlns:sodipodi="http://sodipodi.sourceforge.net/DTD/sodipodi-0.dtd"
   xmlns:inkscape="http://www.inkscape.org/namespaces/inkscape"
   width="127.44405"
   height="420.15753"
   id="svg3447"
   version="1.1"
   inkscape:version="0.48.5 r10040"
   sodipodi:docname="1.svg">
  <defs
     id="defs3449" />
  <sodipodi:namedview
     id="base"
     pagecolor="#ffffff"
     bordercolor="#666666"
     borderopacity="1.0"
     inkscape:pageopacity="0.0"
     inkscape:pageshadow="2"
     inkscape:zoom="0.7"
     inkscape:cx="383.00445"
     inkscape:cy="279.78029"
     inkscape:document-units="px"
     inkscape:current-layer="layer1"
     showgrid="false"
     inkscape:window-width="1280"
     inkscape:window-height="752"
     inkscape:window-x="0"
     inkscape:window-y="0"
     inkscape:window-maximized="1"
     fit-margin-top="0"
     fit-margin-left="0"
     fit-margin-right="0"
     fit-margin-bottom="0" />
  <metadata
     id="metadata3452">
    <rdf:RDF>
      <cc:Work
         rdf:about="">
        <dc:format>image/svg+xml</dc:format>
        <dc:type
           rdf:resource="http://purl.org/dc/dcmitype/StillImage" />
        <dc:title />
      </cc:Work>
    </rdf:RDF>
  </metadata>
  <g
     inkscape:label="レイヤー 1"
     inkscape:groupmode="layer"
     id="layer1"
     transform="translate(-196.22797,-265.93623)">
    <path
       style="fill:#000000"
       d="m 230.48275,553.79076 c 0,-44 0,-88 0,-132 -17.11504,5.89232 -42.74164,-3.71442 -31.49135,-27.54302 11.84502,-16.87212 29.59183,-27.65777 40.91211,-45.40837 16.21963,-10.50317 24.71403,-28.14342 25.92866,-47.00101 12.36916,-11.60817 25.7883,-23.46624 35.85819,-35.90213 18.9109,9.44033 6.10682,39.37319 8.66054,57.36873 0.51635,103.15628 0.11208,206.32436 0.24043,309.4858 -23.44009,3.37165 -30.15207,33.55548 -49.90463,43.84018 -12.96451,26.36043 -41.19509,-8.6372 -31.26783,-28.61152 2.22973,-31.34279 0.53635,-62.82536 1.06388,-94.22866 z"
       id="path3466"
       inkscape:connector-curvature="0"
       sodipodi:nodetypes="ccccccccccc" />
  </g>
</svg>
