<?xml version="1.0" encoding="UTF-8" standalone="no"?>
<!-- Created with Inkscape (http://www.inkscape.org/) -->

<svg
   xmlns:dc="http://purl.org/dc/elements/1.1/"
   xmlns:cc="http://creativecommons.org/ns#"
   xmlns:rdf="http://www.w3.org/1999/02/22-rdf-syntax-ns#"
   xmlns:svg="http://www.w3.org/2000/svg"
   xmlns="http://www.w3.org/2000/svg"
   xmlns:sodipodi="http://sodipodi.sourceforge.net/DTD/sodipodi-0.dtd"
   xmlns:inkscape="http://www.inkscape.org/namespaces/inkscape"
   width="504.43692"
   height="444.78714"
   id="svg3370"
   version="1.1"
   inkscape:version="0.48.5 r10040"
   sodipodi:docname="新規ドキュメント 21">
  <defs
     id="defs3372" />
  <sodipodi:namedview
     id="base"
     pagecolor="#ffffff"
     bordercolor="#666666"
     borderopacity="1.0"
     inkscape:pageopacity="0.0"
     inkscape:pageshadow="2"
     inkscape:zoom="0.35"
     inkscape:cx="-257.59382"
     inkscape:cy="383.15406"
     inkscape:document-units="px"
     inkscape:current-layer="layer1"
     showgrid="false"
     inkscape:window-width="1600"
     inkscape:window-height="1137"
     inkscape:window-x="1672"
     inkscape:window-y="-8"
     inkscape:window-maximized="1"
     fit-margin-top="0"
     fit-margin-left="0"
     fit-margin-right="0"
     fit-margin-bottom="0" />
  <metadata
     id="metadata3375">
    <rdf:RDF>
      <cc:Work
         rdf:about="">
        <dc:format>image/svg+xml</dc:format>
        <dc:type
           rdf:resource="http://purl.org/dc/dcmitype/StillImage" />
        <dc:title></dc:title>
      </cc:Work>
    </rdf:RDF>
  </metadata>
  <g
     inkscape:label="レイヤー 1"
     inkscape:groupmode="layer"
     id="layer1"
     transform="translate(-83.312222,-307.60562)">
    <path
       style="fill:#000000"
       d="m 111.28572,609.50504 c 0,-47 0,-94 0,-141 -25.117422,18.45833 -39.456866,-26.17728 -16.271323,-34.60277 5.426933,-38.35142 56.599453,-45.31277 63.786403,-83.01669 5.06198,-23.09568 43.13688,-33.85591 40.31985,-1.89625 1.2896,40.45767 -1.01506,80.94395 0.14982,121.42238 -0.005,75.69778 0.0545,151.39556 0.0158,227.09333 -33.12905,3.82101 -38.53267,49.99091 -71.98556,53.0601 -24.68387,-13.30118 -17.14562,-44.53909 -15.74624,-67.30473 -0.1533,-24.55404 -0.50479,-49.16672 -0.26873,-73.75537 z M 304.9524,749.83837 c -8.81474,-30.75822 -50.4682,-39.17727 -54.15364,-72.61518 -9.19151,-28.26952 25.9706,-34.62717 41.9113,-47.59263 12.5512,-8.82108 37.02853,1.41861 25.48149,18.3218 19.94998,22.90586 34.7177,24.56085 55.15725,42.06772 6.75847,24.12328 59.26807,0.99449 76.21911,-1.35178 24.73358,-7.58952 44.16991,-25.78337 48.30594,-51.94273 5.97114,-18.52021 21.36317,-41.75669 0.2765,-54.15076 1.62215,-31.64579 -34.79451,-28.847 -55.737,-42.94047 -30.92652,-1.64159 -63.73345,-3.92086 -93.33832,8.69409 -23.15388,-6.50767 3.78079,-37.66386 18.09696,-45.28192 17.00857,-25.72202 46.9212,-35.02517 71.18756,-51.81079 14.96012,-16.91109 36.83479,-30.97159 41.62329,-54.42684 -9.80103,-29.95372 -50.77317,-12.67063 -74.50068,-15.69963 -23.21306,-1.15834 -51.44614,-6.37888 -59.17619,20.53649 -14.32576,11.46828 -60.2503,41.14242 -60.51508,6.30048 1.55731,-27.47569 21.80436,-48.58485 34.42043,-71.64493 18.58212,-24.11173 56.43818,-38.32507 83.73756,-21.09155 19.72524,24.00742 46.33221,12.97842 68.11465,-0.60786 24.90464,-13.71154 51.56142,1.28281 77.53607,-4.6193 22.45771,-8.86148 49.92285,10.83291 30.19348,32.77859 -15.59081,22.64301 -41.67012,35.15922 -57.18039,57.98196 -17.33567,17.83252 -61.70368,45.72641 -31.11734,71.60559 26.10911,14.95265 53.81087,27.59242 72.54529,52.49944 19.94143,16.70556 24.00198,41.97197 23.69255,66.48284 0.64637,30.27702 -20.56116,51.45785 -32.1078,77.44528 -15.29835,19.06663 -37.78942,28.01971 -58.85477,38.47262 -15.64253,22.38832 -43.22199,29.67736 -67.65858,39.28846 -29.06667,11.18187 -61.23785,2.97821 -91.54647,2.61015 -10.86807,-0.4816 -21.7866,-0.48879 -32.61317,0.69086 z"
       id="path3389"
       inkscape:connector-curvature="0"
       sodipodi:nodetypes="ccccccccccccccccccccccccccccccccccccccccc" />
  </g>
</svg>
