<?xml version="1.0" encoding="UTF-8" standalone="no"?>
<!-- Created with Inkscape (http://www.inkscape.org/) -->

<svg
   xmlns:dc="http://purl.org/dc/elements/1.1/"
   xmlns:cc="http://creativecommons.org/ns#"
   xmlns:rdf="http://www.w3.org/1999/02/22-rdf-syntax-ns#"
   xmlns:svg="http://www.w3.org/2000/svg"
   xmlns="http://www.w3.org/2000/svg"
   xmlns:sodipodi="http://sodipodi.sourceforge.net/DTD/sodipodi-0.dtd"
   xmlns:inkscape="http://www.inkscape.org/namespaces/inkscape"
   width="462.05603"
   height="582.82306"
   id="svg3692"
   version="1.1"
   inkscape:version="0.48.5 r10040"
   sodipodi:docname="新規ドキュメント 40">
  <defs
     id="defs3694" />
  <sodipodi:namedview
     id="base"
     pagecolor="#ffffff"
     bordercolor="#666666"
     borderopacity="1.0"
     inkscape:pageopacity="0.0"
     inkscape:pageshadow="2"
     inkscape:zoom="0.35"
     inkscape:cx="195.60882"
     inkscape:cy="327.27478"
     inkscape:document-units="px"
     inkscape:current-layer="layer1"
     showgrid="false"
     fit-margin-top="0"
     fit-margin-left="0"
     fit-margin-right="0"
     fit-margin-bottom="0"
     inkscape:window-width="1600"
     inkscape:window-height="1137"
     inkscape:window-x="1672"
     inkscape:window-y="-8"
     inkscape:window-maximized="1" />
  <metadata
     id="metadata3697">
    <rdf:RDF>
      <cc:Work
         rdf:about="">
        <dc:format>image/svg+xml</dc:format>
        <dc:type
           rdf:resource="http://purl.org/dc/dcmitype/StillImage" />
        <dc:title></dc:title>
      </cc:Work>
    </rdf:RDF>
  </metadata>
  <g
     inkscape:label="レイヤー 1"
     inkscape:groupmode="layer"
     id="layer1"
     transform="translate(-179.39118,-256.8139)">
    <path
       style="fill:#000000"
       d="m 339.57145,830.08321 c -29.48435,-12.80213 -61.85724,-17.11372 -91.26442,-30.12566 -21.11121,6.19549 -64.50658,37.97216 -68.91585,-1.8975 4.0191,-39.70363 42.06692,-61.09226 68.23518,-86.14521 26.70213,-17.74032 53.88754,-34.67947 76.59221,-57.46794 37.37023,-26.37062 79.94896,-45.76924 111.96316,-79.31758 22.6764,-22.96471 45.97031,-45.52529 68.17044,-68.80874 15.70512,-27.67167 15.7374,-62.95276 6.52125,-92.85116 -13.85514,-38.81167 -51.8371,-72.3777 -95.06742,-67.69047 -31.40125,0.76577 -62.81963,0.0776 -94.23455,0.29751 -12.68845,33.7291 -42.54304,63.09633 -38.35122,101.56432 -13.88203,25.00168 -52.72377,57.72483 -78.52756,30.56836 -13.0552,-22.3229 -9.36339,-53.50817 0.24056,-75.54708 21.82873,-14.6158 27.6592,-41.07058 42.08072,-60.50924 20.55486,-19.61897 51.53972,-24.17425 70.20458,-46.20373 35.12374,-16.03254 69.47647,-47.2339 110.881,-37.18014 32.06816,4.54436 68.90511,-12.43908 96.69135,11.04064 27.04248,15.50565 56.26753,33.20296 65.57433,65.13289 18.87599,42.28654 21.48884,94.0795 -4.77668,133.94543 -17.94705,31.08936 -38.65637,60.78759 -61.27861,88.52149 -24.99317,23.46052 -48.09821,48.72931 -72.87453,72.39316 -17.0816,33.42771 -62.14845,32.31156 -81.84609,62.60445 -27.41265,20.93075 5.95661,49.66393 28.76486,54.88251 32.05302,4.4468 65.83744,2.31736 96.66039,15.08968 32.19619,0.6163 61.83089,-23.975 89.62657,-39.04159 13.44986,-21.35841 52.89912,-36.51866 56.73267,-0.1347 1.98481,35.09149 -36.70341,47.28935 -63.53145,56.27872 -25.03641,14.0531 -46.30082,34.40012 -74.40265,42.96897 -24.54945,9.8965 -49.86093,18.93041 -76.70693,16.8945 -25.75838,-0.0822 -52.12223,1.73596 -77.4558,-2.80287 -3.60826,-1.49651 -6.99462,-3.62292 -9.70551,-6.45902 z"
       id="path3711"
       inkscape:connector-curvature="0" />
  </g>
</svg>
