<?xml version="1.0" encoding="UTF-8" standalone="no"?>
<!-- Created with Inkscape (http://www.inkscape.org/) -->

<svg
   xmlns:dc="http://purl.org/dc/elements/1.1/"
   xmlns:cc="http://creativecommons.org/ns#"
   xmlns:rdf="http://www.w3.org/1999/02/22-rdf-syntax-ns#"
   xmlns:svg="http://www.w3.org/2000/svg"
   xmlns="http://www.w3.org/2000/svg"
   xmlns:sodipodi="http://sodipodi.sourceforge.net/DTD/sodipodi-0.dtd"
   xmlns:inkscape="http://www.inkscape.org/namespaces/inkscape"
   width="516.75616"
   height="739.34808"
   id="svg3721"
   version="1.1"
   inkscape:version="0.48.5 r10040"
   sodipodi:docname="新規ドキュメント 42">
  <defs
     id="defs3723" />
  <sodipodi:namedview
     id="base"
     pagecolor="#ffffff"
     bordercolor="#666666"
     borderopacity="1.0"
     inkscape:pageopacity="0.0"
     inkscape:pageshadow="2"
     inkscape:zoom="0.7"
     inkscape:cx="70.97285"
     inkscape:cy="372.705"
     inkscape:document-units="px"
     inkscape:current-layer="layer1"
     showgrid="false"
     showguides="true"
     inkscape:guide-bbox="true"
     inkscape:window-width="886"
     inkscape:window-height="861"
     inkscape:window-x="1680"
     inkscape:window-y="114"
     inkscape:window-maximized="0"
     fit-margin-top="0"
     fit-margin-left="0"
     fit-margin-right="0"
     fit-margin-bottom="0" />
  <metadata
     id="metadata3726">
    <rdf:RDF>
      <cc:Work
         rdf:about="">
        <dc:format>image/svg+xml</dc:format>
        <dc:type
           rdf:resource="http://purl.org/dc/dcmitype/StillImage" />
        <dc:title></dc:title>
      </cc:Work>
    </rdf:RDF>
  </metadata>
  <g
     inkscape:label="レイヤー 1"
     inkscape:groupmode="layer"
     id="layer1"
     transform="translate(-114.45649,-179.33987)">
    <path
       style="fill:#000000"
       d="m 270.42455,910.71933 c -22.79487,-6.06102 -35.4663,-2.859 -63.91044,-26.70462 -28.44414,-23.84562 -69.92498,-48.75498 -74.80863,-86.67898 -11.75774,-27.79585 -26.56874,-60.00493 -9.53141,-89.1481 14.86533,-23.49917 11.06205,-46.94361 23.19516,-67.35576 14.67873,-24.69478 25.92252,-48.70013 58.17286,-63.58926 31.67357,-21.1683 57.24715,-67.00813 14.26246,-92.0201 -20.21556,-22.33762 -32.08567,-49.3059 -31.96649,-77.13906 0.14892,-34.77958 30.53894,-62.6717 40.76845,-96.04533 23.52287,-30.59415 52.71535,-57.09218 80.34468,-84.13794 27.63724,-21.23205 63.20839,-30.48299 95.07164,-38.19745 37.42714,-21.89391 85.71827,-5.79508 118.53567,17.70121 38.79598,19.74524 34.24206,64.11723 50.29917,98.13895 8.2002,36.55974 11.66477,80.72813 -14.88863,110.94621 -31.22327,21.10672 -23.46811,62.29594 12.68775,72.3185 35.23605,13.02305 44.94901,53.80216 57.48599,83.9372 0,39.49151 11.40723,80.6664 0,118.47453 -8.11071,26.88215 -29.09695,48.21608 -46.58989,70.18039 -21.38114,26.84636 -44.74589,52.42873 -70.86165,74.69636 -28.9462,24.681 -54.44263,57.54895 -94.16611,64.46746 -27.22465,9.85484 -47.74014,8.72127 -80.8461,17.13348 -19.99563,2.9029 -40.45961,-0.91667 -63.25448,-6.97769 z m 162.50721,-87.75 c 37.15223,-7.01493 54.29381,-40.85574 66.20787,-70.23553 16.19733,-25.73038 27.61396,-55.10683 13.48076,-84.43536 -5.07168,-43.96195 -41.5505,-67.61084 -68.15209,-98.18338 -27.5337,-31.21782 -74.13824,-20.51493 -110.27564,-15.53275 -32.10438,14.54771 -62.03785,33.21042 -83.34259,62.93777 -28.99002,34.76093 -28.79027,91.63645 -2.12401,127.85021 24.88394,24.76712 49.29026,52.83892 83.92196,63.37092 27.06175,6.64282 48.14724,37.56881 78.25556,24.49771 7.76103,-2.40145 15.20787,-5.85293 22.02818,-10.26959 z m 17.58365,-403.96359 c 11.43583,-34.78045 8.81045,-81.82442 -16.10702,-108.64937 -22.92125,-24.67591 -65.88238,-31.78018 -98.5829,-22.13534 -41.09355,21.6116 -32.71976,78.64028 -6.2517,108.58165 23.95246,33.58608 66.8667,23.65662 96.78246,46.50233 15.29834,11.01795 20.59156,-13.44893 24.15916,-24.29927 z"
       id="path3740"
       inkscape:connector-curvature="0"
       sodipodi:nodetypes="zzccaccaccccccccaaacczccccccccccaaccca" />
  </g>
</svg>
