<?xml version="1.0" encoding="UTF-8" standalone="no"?>
<!-- Created with Inkscape (http://www.inkscape.org/) -->

<svg
   xmlns:dc="http://purl.org/dc/elements/1.1/"
   xmlns:cc="http://creativecommons.org/ns#"
   xmlns:rdf="http://www.w3.org/1999/02/22-rdf-syntax-ns#"
   xmlns:svg="http://www.w3.org/2000/svg"
   xmlns="http://www.w3.org/2000/svg"
   xmlns:sodipodi="http://sodipodi.sourceforge.net/DTD/sodipodi-0.dtd"
   xmlns:inkscape="http://www.inkscape.org/namespaces/inkscape"
   width="1131.6716"
   height="527.53027"
   id="svg3548"
   version="1.1"
   inkscape:version="0.48.5 r10040"
   sodipodi:docname="dim.svg">
  <defs
     id="defs3550" />
  <sodipodi:namedview
     id="base"
     pagecolor="#ffffff"
     bordercolor="#666666"
     borderopacity="1.0"
     inkscape:pageopacity="0.0"
     inkscape:pageshadow="2"
     inkscape:zoom="0.49497475"
     inkscape:cx="215.86214"
     inkscape:cy="582.26798"
     inkscape:document-units="px"
     inkscape:current-layer="layer1"
     showgrid="false"
     fit-margin-top="0"
     fit-margin-left="0"
     fit-margin-right="0"
     fit-margin-bottom="0"
     inkscape:window-width="1600"
     inkscape:window-height="1137"
     inkscape:window-x="1672"
     inkscape:window-y="-8"
     inkscape:window-maximized="1" />
  <metadata
     id="metadata3553">
    <rdf:RDF>
      <cc:Work
         rdf:about="">
        <dc:format>image/svg+xml</dc:format>
        <dc:type
           rdf:resource="http://purl.org/dc/dcmitype/StillImage" />
      </cc:Work>
    </rdf:RDF>
  </metadata>
  <g
     inkscape:label="レイヤー 1"
     inkscape:groupmode="layer"
     id="layer1"
     transform="translate(149.41267,-237.15618)">
    <path
       style="fill:#000000"
       d="m -94.000007,752.79077 c -56.347653,-5.6307 -59.405673,-68.84483 -53.053523,-111.91432 -5.15414,-49.3276 43.43939,-81.83698 53.735046,-131.53646 C -71.79057,449.50333 7.6642283,452.69977 31.917535,398.2545 17.397655,348.80491 55.740914,305.15287 64.771387,258.56248 c 15.004161,-41.33166 97.914543,-16.17092 53.464313,19.49584 -12.38044,48.36142 33.8251,95.73485 10.71732,144.4125 -24.83823,43.12436 -7.75761,92.13356 -12.09512,138.90115 4.45148,38.9252 39.00702,74.06309 27.75163,114.1132 C 114.72026,696.41169 106.39381,761.56202 56.1077,742.8344 32.213642,736.77891 21.659665,663.83633 0.70742826,713.61142 -12.128277,724.26465 -74.610131,768.84374 -94.000007,752.79077 z M -18.444168,637.872 c 51.957908,-5.20428 77.873382,-94.72849 11.7428079,-89.62124 -29.3236489,2.26466 -54.0235009,13.22843 -56.3392569,36.96252 -1.631399,16.72013 10.504247,56.07351 44.596449,52.65872 z M 204.99999,752.79077 c -33.45974,-20.78491 -12.5083,-64.20027 -18,-95.7159 0,-41.26137 0,-82.52273 0,-123.7841 32.52251,-21.48791 18.54136,-76.97143 61.15364,-89.55394 49.25696,-33.65689 51.80035,57.08184 44.72844,88.42139 0.26043,53.04385 0.0533,106.08839 0.11792,159.13255 -24.81286,23.53857 -42.92068,61.01738 -75.01305,66.52397 -4.63215,14.43466 -12.037,2.85794 -12.98695,-5.02397 z m 475,-79 c 0,-29.16667 0,-58.33333 0,-87.5 -61.76477,1.45017 -48.49807,89.6682 -92.32074,119.69277 -20.97639,48.03328 -95.64135,43.51923 -84.99498,-16.47481 2.63653,-46.34003 0.74795,-92.85584 1.31572,-139.29583 -49.34515,17.47106 -35.2969,83.11687 -60.0104,120.80575 -4.12018,44.91129 -79.18112,105.61909 -98.47629,39.50213 -0.66966,-46.76349 2.64088,-93.70524 0.0351,-140.66209 -9.78358,-46.37821 22.64991,-79.1597 47.89911,-113.73419 19.51177,-32.55574 56.64917,-27.03093 59.19623,12.35576 31.95038,22.88346 68.38306,-55.06913 110.49304,-41.16999 21.94757,26.15411 67.6564,76.72111 100.00598,30.0571 25.96268,-34.88712 92.68607,-23.07623 101.66044,21.77168 10.52418,38.16897 28.94164,67.22127 20.68748,109.60579 -0.0568,40.0153 0.0713,80.03062 0.009,120.04592 -33.53364,12.6225 -73.53418,89.9998 -105.87586,35.55005 -5.49928,-23.43217 6.21378,-47.16501 0.37586,-70.55004 z m 211,79 c -48.54674,-20.52036 -39.51418,-81.06171 -10.31715,-113.58555 31.07593,-41.77313 110.53196,-17.97064 100.74718,37.98592 -8.3858,33.82814 -53.11111,103.62215 -90.43003,75.59963 z M 222.68946,409.6469 c -38.15636,-40.24397 5.40999,-115.33573 59.27248,-108.02054 63.95452,12.32938 5.84727,84.20672 -26.94248,100.53191 -9.71836,5.50812 -21.05897,9.15474 -32.33,7.48863 z"
       id="path3567"
       inkscape:connector-curvature="0"
       sodipodi:nodetypes="ccccccccccccsscscccccccccccccccccccccccccccccccccc" />
  </g>
</svg>
