<?xml version="1.0" encoding="UTF-8" standalone="no"?>
<!-- Created with Inkscape (http://www.inkscape.org/) -->

<svg
   xmlns:dc="http://purl.org/dc/elements/1.1/"
   xmlns:cc="http://creativecommons.org/ns#"
   xmlns:rdf="http://www.w3.org/1999/02/22-rdf-syntax-ns#"
   xmlns:svg="http://www.w3.org/2000/svg"
   xmlns="http://www.w3.org/2000/svg"
   xmlns:sodipodi="http://sodipodi.sourceforge.net/DTD/sodipodi-0.dtd"
   xmlns:inkscape="http://www.inkscape.org/namespaces/inkscape"
   width="635.216"
   height="443.87384"
   id="svg3175"
   version="1.1"
   inkscape:version="0.48.5 r10040"
   sodipodi:docname="MI.svg">
  <defs
     id="defs3177" />
  <sodipodi:namedview
     id="base"
     pagecolor="#ffffff"
     bordercolor="#666666"
     borderopacity="1.0"
     inkscape:pageopacity="0.0"
     inkscape:pageshadow="2"
     inkscape:zoom="0.35"
     inkscape:cx="826.92291"
     inkscape:cy="284.62487"
     inkscape:document-units="px"
     inkscape:current-layer="layer1"
     showgrid="false"
     inkscape:window-width="1600"
     inkscape:window-height="1137"
     inkscape:window-x="1672"
     inkscape:window-y="-8"
     inkscape:window-maximized="1"
     fit-margin-top="0"
     fit-margin-left="0"
     fit-margin-right="0"
     fit-margin-bottom="0" />
  <metadata
     id="metadata3180">
    <rdf:RDF>
      <cc:Work
         rdf:about="">
        <dc:format>image/svg+xml</dc:format>
        <dc:type
           rdf:resource="http://purl.org/dc/dcmitype/StillImage" />
        <dc:title></dc:title>
      </cc:Work>
    </rdf:RDF>
  </metadata>
  <g
     inkscape:label="レイヤー 1"
     inkscape:groupmode="layer"
     id="layer1"
     transform="translate(-61.873923,-328.82815)">
    <path
       style="fill:#000000"
       d="m 62.499984,746.43362 c 7.281155,-32.55306 11.863187,-74.97405 16.785511,-98.7091 5.656475,-27.27507 19.674109,-44.35766 20.173817,-75.06742 0.539179,-33.13545 24.441688,-96.39207 24.441688,-96.39207 0,0 8.95321,-45.37155 17.44678,-67.73129 7.18252,-22.02167 15.42145,-44.05815 26.34109,-64.41016 26.9043,-29.07336 61.37544,5.35481 63.24773,35.2043 19.46919,27.58053 24.66715,60.39955 32.36752,91.40884 10.67499,31.75136 8.28203,67.018 24.74885,96.99832 5.2457,19.50035 12.31981,71.21069 36.35934,58.97998 6.18078,-37.26738 23.89939,-71.07543 32.84057,-107.6355 10.55078,-31.9893 21.00592,-63.88734 27.75716,-96.93704 8.65947,-27.28812 13.44732,-58.31476 33.68598,-79.8137 25.23671,-29.68821 64.40089,-6.06693 63.11483,28.86211 2.62681,34.55272 10.37481,67.72627 24.06735,99.50844 20.55948,61.94404 62.45342,185.52256 62.45342,185.52256 0,0 21.31373,53.57801 7.47845,79.95812 -12.54926,13.69965 -39.63529,52.97147 -57.6659,28.67784 -13.34224,-32.82287 -23.06002,-68.00077 -35.77957,-101.5203 -15.14593,-36.65305 -12.16349,-78.61818 -32.27851,-113.67763 -3.95931,-15.92795 -37.55234,-31.09664 -43.7197,-2.23611 -9.79848,30.17852 -14.16789,62.20284 -33.31794,88.63501 -15.31866,29.91774 -38.6433,92.30042 -38.6433,92.30042 0,0 -34.98342,55.80436 -62.05309,39.5896 -5.57972,-21.64337 -15.3541,-42.91306 -22.09809,-64.87194 -10.14588,-31.07964 -12.42091,-64.03463 -25.13008,-94.36043 -0.56072,-15.35395 -18.78393,-83.00541 -47.18966,-60.15898 -10.89292,29.66133 -17.08995,63.14637 -30.12506,93.66727 -16.37459,30.92868 -6.58489,72.9406 -32.62697,98.63485 -7.70263,20.19716 -56.924962,53.33899 -53.096378,12.2156 l 0.676918,-3.26052 z M 625.50001,553.45669 c 0,-70.32564 0,-140.65128 0,-210.97692 24.01006,0.27108 73.5535,-35.485 71.52977,11.47107 -1.05723,129.38145 -0.43624,258.76784 -0.37231,388.15152 -23.88212,0.42851 -62.18396,42.73661 -71.27522,-0.70391 -3.91491,-30.47245 2.46591,-61.22403 0.16724,-91.90505 -0.004,-32.01223 -0.16487,-64.02458 -0.0495,-96.03671 z"
       id="path3194"
       inkscape:connector-curvature="0"
       sodipodi:nodetypes="cssccccccccccccccccccccccccccccccccccccc" />
  </g>
</svg>
