<?xml version="1.0" encoding="UTF-8" standalone="no"?>
<!-- Created with Inkscape (http://www.inkscape.org/) -->

<svg
   xmlns:dc="http://purl.org/dc/elements/1.1/"
   xmlns:cc="http://creativecommons.org/ns#"
   xmlns:rdf="http://www.w3.org/1999/02/22-rdf-syntax-ns#"
   xmlns:svg="http://www.w3.org/2000/svg"
   xmlns="http://www.w3.org/2000/svg"
   xmlns:sodipodi="http://sodipodi.sourceforge.net/DTD/sodipodi-0.dtd"
   xmlns:inkscape="http://www.inkscape.org/namespaces/inkscape"
   width="214.49487"
   height="359.82785"
   id="svg3009"
   version="1.1"
   inkscape:version="0.48.5 r10040"
   sodipodi:docname="新規ドキュメント 3">
  <defs
     id="defs3011" />
  <sodipodi:namedview
     id="base"
     pagecolor="#ffffff"
     bordercolor="#666666"
     borderopacity="1.0"
     inkscape:pageopacity="0.0"
     inkscape:pageshadow="2"
     inkscape:zoom="0.98994949"
     inkscape:cx="282.20935"
     inkscape:cy="176.17787"
     inkscape:document-units="px"
     inkscape:current-layer="layer1"
     showgrid="false"
     fit-margin-top="0"
     fit-margin-left="0"
     fit-margin-right="0"
     fit-margin-bottom="0"
     inkscape:window-width="1600"
     inkscape:window-height="1137"
     inkscape:window-x="1672"
     inkscape:window-y="-8"
     inkscape:window-maximized="1" />
  <metadata
     id="metadata3014">
    <rdf:RDF>
      <cc:Work
         rdf:about="">
        <dc:format>image/svg+xml</dc:format>
        <dc:type
           rdf:resource="http://purl.org/dc/dcmitype/StillImage" />
        <dc:title></dc:title>
      </cc:Work>
    </rdf:RDF>
  </metadata>
  <g
     inkscape:label="レイヤー 1"
     inkscape:groupmode="layer"
     id="layer1"
     transform="translate(-271.85235,-393.94176)">
    <path
       style="fill:#000000"
       d="m 371.28572,739.71931 c 3.07675,-24.49611 10.65124,-42.41759 14.65444,-60.00522 3.81765,-17.70364 9.23032,-33.26737 15.1587,-55.90159 7.42825,-25.62938 7.07068,-20.01329 14.03155,-48.82693 12.83186,-17.29681 -17.34581,-26.5767 -35.71183,-15.15793 -18.15345,5.30762 -31.0314,2.0647 -49.41477,1.7055 -18.98503,-4.69528 -36.2358,-16.03218 -49.25906,-30.38495 -12.76722,-21.06989 -11.24685,-39.17434 1.10893,-69.01252 13.48645,-26.67311 39.18935,-30.49102 58.89701,-25.29526 24.57578,4.75847 43.23182,29.14557 45.6855,55.228 0.42252,25.40252 -27.47805,22.45741 -16.54757,37.32224 18.19186,7.61213 34.7234,-12.9213 48.43656,-22.76129 12.35348,-15.90805 17.47115,-35.87414 27.03524,-53.34628 6.62632,-16.94317 10.42638,-34.87525 12.50896,-52.91283 12.07195,-18.97564 39.28344,8.72572 23.8733,22.93436 -7.95715,22.43642 -13.4815,45.4329 -19.89278,68.58297 -12.67667,38.10661 -13.90111,45.1225 -24.88006,83.93427 -2.63628,14.39409 -7.45596,21.35866 -9.10855,42.9805 -7.71655,17.78071 -15.66443,41.77934 -17.82576,61.25425 -2.41525,14.99171 -6.76294,26.57155 -12.28176,40.65313 -3.37163,12.6703 -0.17545,28.49991 -15.45742,32.70233 -8.35845,2.13125 -16.52315,-5.62563 -11.01063,-13.69275 z"
       id="path3028"
       inkscape:connector-curvature="0"
       sodipodi:nodetypes="cccccccccccccccccccccc" />
  </g>
</svg>
