<?xml version="1.0" encoding="UTF-8" standalone="no"?>
<!-- Created with Inkscape (http://www.inkscape.org/) -->

<svg
   xmlns:dc="http://purl.org/dc/elements/1.1/"
   xmlns:cc="http://creativecommons.org/ns#"
   xmlns:rdf="http://www.w3.org/1999/02/22-rdf-syntax-ns#"
   xmlns:svg="http://www.w3.org/2000/svg"
   xmlns="http://www.w3.org/2000/svg"
   xmlns:sodipodi="http://sodipodi.sourceforge.net/DTD/sodipodi-0.dtd"
   xmlns:inkscape="http://www.inkscape.org/namespaces/inkscape"
   width="762.10571"
   height="374.74539"
   id="svg3754"
   version="1.1"
   inkscape:version="0.48.5 r10040"
   sodipodi:docname="新規ドキュメント 44">
  <defs
     id="defs3756" />
  <sodipodi:namedview
     id="base"
     pagecolor="#ffffff"
     bordercolor="#666666"
     borderopacity="1.0"
     inkscape:pageopacity="0.0"
     inkscape:pageshadow="2"
     inkscape:zoom="0.35"
     inkscape:cx="383.93969"
     inkscape:cy="147.43271"
     inkscape:document-units="px"
     inkscape:current-layer="layer1"
     showgrid="false"
     fit-margin-top="0"
     fit-margin-left="0"
     fit-margin-right="0"
     fit-margin-bottom="0"
     inkscape:window-width="678"
     inkscape:window-height="424"
     inkscape:window-x="1940"
     inkscape:window-y="260"
     inkscape:window-maximized="0" />
  <metadata
     id="metadata3759">
    <rdf:RDF>
      <cc:Work
         rdf:about="">
        <dc:format>image/svg+xml</dc:format>
        <dc:type
           rdf:resource="http://purl.org/dc/dcmitype/StillImage" />
        <dc:title></dc:title>
      </cc:Work>
    </rdf:RDF>
  </metadata>
  <g
     inkscape:label="レイヤー 1"
     inkscape:groupmode="layer"
     id="layer1"
     transform="translate(8.939693,-285.04951)">
    <path
       style="fill:#000000"
       d="m 328.50001,648.21935 c -29.50602,-13.08737 -73.31061,-11.97572 -82.74105,-50.47865 -14.31658,-33.8361 0.5604,-70.69646 -4.99416,-105.79043 -0.80671,-62.24136 0.11842,-124.48773 -0.26477,-186.73092 21.97695,-0.99668 65.63699,-23.45883 52.91744,18.66238 -2.27183,72.27951 -0.11653,144.59685 -1.00918,216.89126 25.76503,27.7722 53.4268,67.59146 95.88358,64.71682 44.88406,-3.80577 69.58526,-51.17161 64.50956,-92.50374 -2.79019,-63.52538 -0.70192,-127.15996 -1.3014,-190.76672 19.12569,-8.4135 58.57515,-49.33505 54.05904,-2.0254 -3.71418,82.79939 -0.59467,165.68721 -1.55907,248.5254 -34.93671,15.09427 -52.97435,58.44302 -93.52166,62.31889 -23.3647,13.2347 -57.21991,46.1423 -81.97833,17.18111 z m -299.211069,-17.75 c -30.18095486,-11.38609 -50.283729,-56.9487 -12.904052,-71.11087 31.620445,-19.72158 53.312268,34.78307 85.501481,38.90602 16.68548,12.33171 36.45082,1.80527 43.0531,-11.07219 47.49592,-6.28384 20.12832,-74.39779 -14.37824,-82.36575 C 96.105561,494.32597 61.433552,486.29739 28.49403,472.66531 -18.104466,444.46855 -23.393774,364.0875 25.079575,334.84622 c 27.517072,-36.13738 74.324299,-50.0372 118.032065,-49.79357 30.54676,2.70865 68.03642,35.93698 55.76418,68.55913 -18.50234,16.66004 -43.76895,21.24403 -62.42585,3.135 -26.4244,-5.96365 -55.068286,-29.70762 -81.744201,-12.73893 -16.451247,17.14838 -4.58904,44.45647 -8.205758,66.2115 50.392699,6.74881 94.195249,34.83265 140.977189,52.70304 24.99772,12.88423 31.45559,43.61822 36.88143,68.93466 3.84229,28.51438 -15.36025,54.95164 -42.16861,63.43129 -30.49445,17.99826 -57.73205,49.45174 -96.547152,45.5156 -19.051542,-0.0953 -39.337969,-0.74895 -56.353927,-10.33459 z m 527.877729,8.08333 c -19.47125,-22.08679 -35.79696,-72.68189 0.77553,-86.38578 27.05408,20.86573 57.77199,35.49491 88.26084,45.93882 17.0156,-1.17881 36.97301,-16.40057 49.03684,-19.83022 12.32528,-31.23276 0.72504,-70.17872 -36.8185,-72.67826 -33.84844,-12.70714 -69.57629,-20.19167 -103.18953,-33.2037 -36.98995,-20.00736 -42.42822,-69.67192 -22.80406,-103.85111 18.69637,-46.56047 65.59954,-75.76267 113.73685,-83.18616 28.9746,-1.45473 60.63466,7.45979 81.36771,28.3837 27.17891,29.45074 -19.18148,61.30577 -46.83615,43.53707 -27.98233,-10.41516 -61.13652,-30.72968 -89.68041,-10.45359 -30.49899,19.10796 -12.19282,56.43016 14.04998,68.48194 24.8526,14.594 54.37099,17.61739 79.99776,30.45238 42.66781,-0.57549 71.14247,44.66365 67.843,84.02699 1.32767,41.21541 -37.64953,65.39376 -65.21875,89.1597 -37.93018,28.39962 -86.60869,20.31623 -130.52111,19.60822 z"
       id="path3773"
       inkscape:connector-curvature="0" />
  </g>
</svg>
