<?xml version="1.0" encoding="UTF-8" standalone="no"?>
<!-- Created with Inkscape (http://www.inkscape.org/) -->

<svg
   xmlns:dc="http://purl.org/dc/elements/1.1/"
   xmlns:cc="http://creativecommons.org/ns#"
   xmlns:rdf="http://www.w3.org/1999/02/22-rdf-syntax-ns#"
   xmlns:svg="http://www.w3.org/2000/svg"
   xmlns="http://www.w3.org/2000/svg"
   xmlns:sodipodi="http://sodipodi.sourceforge.net/DTD/sodipodi-0.dtd"
   xmlns:inkscape="http://www.inkscape.org/namespaces/inkscape"
   width="341.7746"
   height="477.97223"
   id="svg3591"
   version="1.1"
   inkscape:version="0.48.5 r10040"
   sodipodi:docname="3.svg">
  <defs
     id="defs3593" />
  <sodipodi:namedview
     id="base"
     pagecolor="#ffffff"
     bordercolor="#666666"
     borderopacity="1.0"
     inkscape:pageopacity="0.0"
     inkscape:pageshadow="2"
     inkscape:zoom="0.35"
     inkscape:cx="170.08007"
     inkscape:cy="257.00962"
     inkscape:document-units="px"
     inkscape:current-layer="layer1"
     showgrid="false"
     fit-margin-top="0"
     fit-margin-left="0"
     fit-margin-right="0"
     fit-margin-bottom="0"
     inkscape:window-width="678"
     inkscape:window-height="424"
     inkscape:window-x="1914"
     inkscape:window-y="234"
     inkscape:window-maximized="0" />
  <metadata
     id="metadata3596">
    <rdf:RDF>
      <cc:Work
         rdf:about="">
        <dc:format>image/svg+xml</dc:format>
        <dc:type
           rdf:resource="http://purl.org/dc/dcmitype/StillImage" />
        <dc:title></dc:title>
      </cc:Work>
    </rdf:RDF>
  </metadata>
  <g
     inkscape:label="レイヤー 1"
     inkscape:groupmode="layer"
     id="layer1"
     transform="translate(-204.91993,-291.39958)">
    <path
       style="fill:#000000"
       d="m 286.71428,761.02618 c -20.49555,-11.14406 -49.48992,-6.44487 -59.86116,-31.96293 -19.24396,-18.99626 -28.59939,-50.98825 -16.56389,-76.02538 15.09926,-19.15497 48.45862,-40.47385 64.09898,-10.65992 18.00421,17.79575 32.36427,47.34733 61.58579,45.92074 19.7538,-4.79092 36.75696,14.44199 52.69483,1.08098 19.72555,3.43197 35.06776,-5.8146 44.08944,-21.6671 18.82072,-13.7034 33.43939,-37.47945 26.63059,-61.29746 6.19931,-28.57696 -16.3854,-53.06682 -41.11469,-63.28176 -20.69327,-14.20514 -46.15414,-14.57201 -70.1668,-13.14035 -20.14744,-1.85931 -49.07681,33.56243 -59.30943,2.52562 -2.59901,-22.40005 22.25724,-30.47792 33.96191,-45.36905 13.08639,-13.57944 28.61517,-24.82469 45.40884,-32.94249 20.29434,-18.66957 42.35378,-35.32864 62.34091,-54.34143 11.79161,-29.58457 -28.03145,-37.41798 -47.81449,-27.51566 -30.16625,0.72264 -64.48373,-9.57893 -90.71971,10.51959 -12.43581,18.06238 -28.46871,50.62099 -55.43791,38.21588 -26.78272,-16.7165 5.80015,-43.03128 8.8135,-63.60561 -0.45783,-25.10304 21.69742,-36.36606 35.60272,-53.28304 16.20451,-19.31243 41.84206,-10.71508 63.4113,-11.83281 64.27145,0.77656 128.65064,-0.0816 192.85128,-0.35558 25.01179,5.6076 -6.92712,31.28444 -10.99782,44.0182 -14.38814,17.88181 -34.3484,26.46594 -35.05683,51.60296 -6.53041,18.98116 -21.67207,35.68573 -41.91396,39.72466 -15.99352,5.2268 -40.578,38.66205 -9.13964,36.43634 23.72495,6.84689 44.39848,21.44811 65.80188,31.98233 5.98783,22.84996 30.93414,33.26426 33.15865,56.97327 -1.50147,20.4601 -0.9467,41.33737 -5.30034,61.39669 -5.73909,23.56582 -21.65147,42.76761 -39.71417,58.06985 -19.14326,21.5289 -41.7755,39.71901 -60.70288,61.38706 -18.41627,12.66311 -39.78569,20.05724 -60.3083,28.35851 -26.85923,14.98392 -57.62572,2.50104 -86.3286,3.19928 0,-1.37709 0,-2.75443 0,-4.13139 z"
       id="path3646"
       inkscape:connector-curvature="0" />
  </g>
</svg>
