<?xml version="1.0" encoding="UTF-8" standalone="no"?>
<!-- Created with Inkscape (http://www.inkscape.org/) -->

<svg
   xmlns:dc="http://purl.org/dc/elements/1.1/"
   xmlns:cc="http://creativecommons.org/ns#"
   xmlns:rdf="http://www.w3.org/1999/02/22-rdf-syntax-ns#"
   xmlns:svg="http://www.w3.org/2000/svg"
   xmlns="http://www.w3.org/2000/svg"
   xmlns:sodipodi="http://sodipodi.sourceforge.net/DTD/sodipodi-0.dtd"
   xmlns:inkscape="http://www.inkscape.org/namespaces/inkscape"
   width="279.77594"
   height="407.74551"
   id="svg3475"
   version="1.1"
   inkscape:version="0.48.5 r10040"
   sodipodi:docname="新規ドキュメント 28">
  <defs
     id="defs3477" />
  <sodipodi:namedview
     id="base"
     pagecolor="#ffffff"
     bordercolor="#666666"
     borderopacity="1.0"
     inkscape:pageopacity="0.0"
     inkscape:pageshadow="2"
     inkscape:zoom="0.35"
     inkscape:cx="-240.25967"
     inkscape:cy="287.67888"
     inkscape:document-units="px"
     inkscape:current-layer="layer1"
     showgrid="false"
     fit-margin-top="0"
     fit-margin-left="0"
     fit-margin-right="0"
     fit-margin-bottom="0"
     inkscape:window-width="1600"
     inkscape:window-height="1137"
     inkscape:window-x="1672"
     inkscape:window-y="-8"
     inkscape:window-maximized="1" />
  <metadata
     id="metadata3480">
    <rdf:RDF>
      <cc:Work
         rdf:about="">
        <dc:format>image/svg+xml</dc:format>
        <dc:type
           rdf:resource="http://purl.org/dc/dcmitype/StillImage" />
        <dc:title></dc:title>
      </cc:Work>
    </rdf:RDF>
  </metadata>
  <g
     inkscape:label="レイヤー 1"
     inkscape:groupmode="layer"
     id="layer1"
     transform="translate(-223.60124,-320.30926)">
    <path
       style="fill:#000000"
       d="m 277.78573,716.07647 c -14.64261,-13.89028 -41.88985,-12.11407 -49.30974,-33.75074 -5.67611,-19.00183 -9.15738,-43.46658 5.68209,-59.21572 13.82177,-10.33818 35.30562,-6.49188 46.43181,6.33123 11.3032,11.8995 23.26473,27.59708 41.689,26.10557 23.28585,1.75002 51.7519,4.68961 68.48546,-15.3784 21.8484,-13.23973 35.07245,-40.74475 28.13297,-65.90609 6.74744,-26.73709 -10.75817,-57.77685 -38.67035,-62.12436 -20.60443,-2.52221 -40.90919,5.55363 -61.56221,2.09038 -17.14528,-1.95715 -37.07534,-0.4171 -48.27481,14.57558 -15.76744,12.79851 -32.00161,-9.01977 -30.7514,-24.44765 2.9234,-13.38995 1.43922,-19.92125 3.46299,-41.00332 -0.064,-12.04916 0.26143,-19.58428 5.31244,-37.72679 1.96944,-15.49791 10.54496,-26.8463 12.6302,-40.512 0.92762,-14.60177 17.60938,-17.74072 25.40809,-27.81345 15.52536,-14.85406 29.27199,-37.12915 53.37146,-36.99081 18.20059,0.0146 36.31509,2.82405 54.5381,1.20033 34.57502,-0.31596 69.16005,-1.14436 103.732,-0.16715 16.35025,13.91835 -9.39039,27.35244 -21.21403,32.06131 -15.96708,4.63137 -27.96421,17.93651 -45.1451,19.44245 -17.14226,3.36023 -34.75685,-0.68512 -51.75407,-0.16121 -19.97703,5.49623 -42.78986,-8.09653 -61.04569,4.58868 -11.4446,10.85305 -2.84561,28.96686 -5.19791,43.09972 2.63808,13.43928 -5.11998,33.64945 4.27026,42.51534 20.93305,5.78228 34.49715,-23.5563 55.50229,-15.32275 18.03683,14.76005 43.71906,10.57641 62.89732,22.44453 19.62682,15.55616 33.51195,36.96733 44.27603,59.19501 15.50419,19.50538 9.13428,40.81964 -5.1589,69.79827 -18.16275,27.80487 -27.7504,40.52491 -45.37207,67.55243 -15.98164,7.27602 -39.60286,40.50195 -69.33442,40.74705 -14.78532,7.01553 -39.6593,23.79659 -63.9521,20.26957 -7.57748,-0.74683 -15.68794,-4.22153 -19.07971,-11.49701 z"
       id="path3494"
       inkscape:connector-curvature="0"
       sodipodi:nodetypes="cccccccccccccccccccccccccccccccc" />
  </g>
</svg>
