<?xml version="1.0" encoding="UTF-8" standalone="no"?>
<!-- Created with Inkscape (http://www.inkscape.org/) -->

<svg
   xmlns:dc="http://purl.org/dc/elements/1.1/"
   xmlns:cc="http://creativecommons.org/ns#"
   xmlns:rdf="http://www.w3.org/1999/02/22-rdf-syntax-ns#"
   xmlns:svg="http://www.w3.org/2000/svg"
   xmlns="http://www.w3.org/2000/svg"
   xmlns:sodipodi="http://sodipodi.sourceforge.net/DTD/sodipodi-0.dtd"
   xmlns:inkscape="http://www.inkscape.org/namespaces/inkscape"
   width="268.19534"
   height="459.573"
   id="svg3340"
   version="1.1"
   inkscape:version="0.48.5 r10040"
   sodipodi:docname="9.svg">
  <defs
     id="defs3342" />
  <sodipodi:namedview
     id="base"
     pagecolor="#ffffff"
     bordercolor="#666666"
     borderopacity="1.0"
     inkscape:pageopacity="0.0"
     inkscape:pageshadow="2"
     inkscape:zoom="0.98994949"
     inkscape:cx="260.55779"
     inkscape:cy="245.72712"
     inkscape:document-units="px"
     inkscape:current-layer="layer1"
     showgrid="false"
     inkscape:window-width="1600"
     inkscape:window-height="1137"
     inkscape:window-x="1672"
     inkscape:window-y="-8"
     inkscape:window-maximized="1"
     fit-margin-top="0"
     fit-margin-left="0"
     fit-margin-right="0"
     fit-margin-bottom="0" />
  <metadata
     id="metadata3345">
    <rdf:RDF>
      <cc:Work
         rdf:about="">
        <dc:format>image/svg+xml</dc:format>
        <dc:type
           rdf:resource="http://purl.org/dc/dcmitype/StillImage" />
        <dc:title></dc:title>
      </cc:Work>
    </rdf:RDF>
  </metadata>
  <g
     inkscape:label="レイヤー 1"
     inkscape:groupmode="layer"
     id="layer1"
     transform="translate(-221.82292,-335.03856)">
    <path
       style="fill:#000000"
       d="m 347.45236,793.33837 c -1.14491,-58.43797 -0.49433,-116.88907 -0.66667,-175.33333 -18.88861,9.29983 -40.6479,26.01018 -62.34788,15.29711 -19.49833,-11.01006 -46.73787,-20.20977 -49.5217,-46.44892 -9.26279,-10.29175 -14.49705,-25.09354 -11.98339,-39.61442 2.2431,-14.63255 1.05229,-29.24525 -1.1098,-43.70696 1.51086,-22.63314 18.97622,-39.41289 27.27024,-59.60399 12.95549,-20.37473 37.22505,-30.27867 49.60821,-51.15022 16.5427,-16.94673 33.6737,-34.57596 56.35018,-42.92966 18.77414,-14.54903 42.1367,-14.65401 64.50222,-14.01758 20.11992,-3.71679 42.47618,5.69851 46.29848,27.24383 6.68831,16.4489 13.50456,33.10238 24.16601,47.45734 -0.43105,21.51962 -4.66731,42.87784 -2.87102,64.43898 -1.78753,21.24199 -21.56614,34.39144 -25.68789,54.98503 -8.15672,24.10086 -22.46527,45.07384 -34.42542,67.34624 -17.25606,24.85732 -16.67565,61.21036 4.98037,83.29162 10.36681,21.32747 4.33831,48.42502 -9.2547,66.82599 -14.42318,15.71335 -37.52324,24.03275 -45.21512,45.36746 -9.69747,4.00023 -20.08163,0.11004 -30.09212,0.55148 z m 69.13726,-288.78246 c 2.64221,-24.10414 -18.54281,-43.88312 -28.25354,-64.72835 -12.21999,-17.53928 -42.85523,-26.19137 -57.89667,-7.02384 -16.71765,16.49839 -24.92645,39.00272 -34.61551,59.87554 -1.64274,23.92224 22.84595,37.00102 39.8465,48.66324 24.69268,11.2794 71.87823,-15.47626 80.91922,-36.78659 z"
       id="path3359"
       inkscape:connector-curvature="0"
       sodipodi:nodetypes="ccccccccccccccccccccccccc" />
  </g>
</svg>
