<?xml version="1.0" encoding="UTF-8" standalone="no"?>
<!-- Created with Inkscape (http://www.inkscape.org/) -->

<svg
   xmlns:dc="http://purl.org/dc/elements/1.1/"
   xmlns:cc="http://creativecommons.org/ns#"
   xmlns:rdf="http://www.w3.org/1999/02/22-rdf-syntax-ns#"
   xmlns:svg="http://www.w3.org/2000/svg"
   xmlns="http://www.w3.org/2000/svg"
   xmlns:sodipodi="http://sodipodi.sourceforge.net/DTD/sodipodi-0.dtd"
   xmlns:inkscape="http://www.inkscape.org/namespaces/inkscape"
   width="1201.5243"
   height="622.30658"
   id="svg2"
   version="1.1"
   inkscape:version="0.48.5 r10040"
   sodipodi:docname="add.svg">
  <defs
     id="defs4" />
  <sodipodi:namedview
     id="base"
     pagecolor="#ffffff"
     bordercolor="#666666"
     borderopacity="1.0"
     inkscape:pageopacity="0.0"
     inkscape:pageshadow="2"
     inkscape:zoom="0.35"
     inkscape:cx="742.79202"
     inkscape:cy="323.13832"
     inkscape:document-units="px"
     inkscape:current-layer="layer1"
     showgrid="false"
     inkscape:window-width="678"
     inkscape:window-height="424"
     inkscape:window-x="1992"
     inkscape:window-y="679"
     inkscape:window-maximized="0"
     fit-margin-top="0"
     fit-margin-left="0"
     fit-margin-right="0"
     fit-margin-bottom="0" />
  <metadata
     id="metadata7">
    <rdf:RDF>
      <cc:Work
         rdf:about="">
        <dc:format>image/svg+xml</dc:format>
        <dc:type
           rdf:resource="http://purl.org/dc/dcmitype/StillImage" />
        <dc:title></dc:title>
      </cc:Work>
    </rdf:RDF>
  </metadata>
  <g
     inkscape:label="レイヤー 1"
     inkscape:groupmode="layer"
     id="layer1"
     transform="translate(367.79202,-213.1939)">
    <path
       style="fill:#000000"
       d="m -365.78572,737.5221 c 0,-58.43426 0,-116.86852 0,-175.30278 66.23694,-12.37118 81.52676,-107.04234 153.94162,-105.9138 50.36498,-3.1607 115.927416,-10.11875 148.011843,38.21353 47.797452,73.35128 -16.57861,165.1734 29.456716,239.09588 31.2529931,89.61563 -22.699423,110.92865 -80.995229,60.509 -46.8767,-51.33967 -82.7335,12.22275 -129.58662,21.76033 -50.84978,63.91131 -137.07293,-46.03418 -120.82833,-78.36216 z m 175.5,-34.80278 c 24.61312,-45.5192 67.90193,-106.70948 16.51594,-151.13907 -58.00023,-48.79572 -104.77305,48.21701 -89.07053,98.91782 -8.9888,42.59322 13.29477,117.8416 68.05849,82.26004 7.91932,-7.6786 9.33402,-20.45333 4.4961,-30.03879 z M 56.48735,790.96933 C 0.48279919,751.66732 0.36146942,651.98996 60.442657,616.51331 94.607577,564.63446 110.838,495.72863 181.89369,482.07656 c 35.67517,-43.1037 119.33615,-1.10543 124.5557,-68.48206 12.46501,-43.17364 49.86369,-73.31966 30.0272,-123.62624 -17.49633,-51.0694 87.43842,-103.23522 71.45685,-27.08598 -0.30475,158.27871 -1.07986,316.56728 1.09976,474.83704 -54.0596,-1.29795 -83.59892,116.96787 -137.93763,53.19248 -45.5449,-23.18343 -79.22799,37.04012 -128.03269,19.47593 -29.28852,-0.30974 -62.660029,0.20872 -86.57553,-19.4184 z m 176.22693,-70.75001 c 54.73719,-37.47465 46.89989,-123.37472 12.00004,-171.60131 -35.6895,-27.94671 -83.18269,5.75492 -111.42226,28.20107 -20.4353,32.1933 -2.26815,69.493 -6.57778,104.64524 -6.02782,36.39588 51.4446,35.99335 72.31298,60.68399 16.6161,8.18191 29.84241,-7.13015 33.68702,-21.92899 z M 478.7143,790.72603 C 420.66923,759.22344 437.45424,680.95528 444.47497,627.7456 c 24.90398,-56.96433 79.44309,-92.50528 124.83257,-131.75246 45.62335,-41.46145 144.62146,-16.14132 157.6951,-86.09815 8.98715,-56.9922 -27.18098,-127.28678 14.72241,-174.08136 34.91136,-33.9296 103.99374,-33.9339 90.21472,29.40161 -4.57475,46.42345 0.36223,92.81013 -1.12898,139.15615 -26.14154,26.76028 -49.455,59.7588 -34.98718,102.51269 -0.1179,88.45068 -0.13439,177.20535 -0.10931,265.78905 -33.81495,21.01842 -96.97892,60.17605 -118.46409,3.53973 -58.56518,-7.75597 -105.86808,55.27246 -165.29407,35.07586 -13.20622,-1.88845 -26.29308,-8.8079 -33.24184,-20.56269 z m 141,-70.50671 c 29.49362,-31.89185 69.28881,-89.06828 52.75682,-129.62773 -40.48179,-49.82007 -137.14448,-39.26782 -156.8054,24.67486 -4.62588,56.60306 53.43271,101.54257 95.41643,124.52232 6.56184,-4.00369 7.40268,-12.80113 8.63215,-19.56945 z"
       id="path3007"
       inkscape:connector-curvature="0"
       sodipodi:nodetypes="cccccccccccccccccccccccccccccccccccccccccccccc" />
  </g>
</svg>
