<?xml version="1.0" encoding="UTF-8" standalone="no"?>
<!-- Created with Inkscape (http://www.inkscape.org/) -->

<svg
   xmlns:dc="http://purl.org/dc/elements/1.1/"
   xmlns:cc="http://creativecommons.org/ns#"
   xmlns:rdf="http://www.w3.org/1999/02/22-rdf-syntax-ns#"
   xmlns:svg="http://www.w3.org/2000/svg"
   xmlns="http://www.w3.org/2000/svg"
   xmlns:sodipodi="http://sodipodi.sourceforge.net/DTD/sodipodi-0.dtd"
   xmlns:inkscape="http://www.inkscape.org/namespaces/inkscape"
   width="684.88019"
   height="748.30096"
   id="svg3089"
   version="1.1"
   inkscape:version="0.48.5 r10040"
   sodipodi:docname="G.svg">
  <defs
     id="defs3091" />
  <sodipodi:namedview
     id="base"
     pagecolor="#ffffff"
     bordercolor="#666666"
     borderopacity="1.0"
     inkscape:pageopacity="0.0"
     inkscape:pageshadow="2"
     inkscape:zoom="0.7"
     inkscape:cx="296.77116"
     inkscape:cy="332.22563"
     inkscape:document-units="px"
     inkscape:current-layer="layer1"
     showgrid="false"
     inkscape:window-width="1600"
     inkscape:window-height="1137"
     inkscape:window-x="1672"
     inkscape:window-y="-8"
     inkscape:window-maximized="1"
     fit-margin-top="0"
     fit-margin-left="0"
     fit-margin-right="0"
     fit-margin-bottom="0" />
  <metadata
     id="metadata3094">
    <rdf:RDF>
      <cc:Work
         rdf:about="">
        <dc:format>image/svg+xml</dc:format>
        <dc:type
           rdf:resource="http://purl.org/dc/dcmitype/StillImage" />
        <dc:title />
      </cc:Work>
    </rdf:RDF>
  </metadata>
  <g
     inkscape:label="レイヤー 1"
     inkscape:groupmode="layer"
     id="layer1"
     transform="translate(-29.786255,-163.32217)">
    <path
       style="fill:#000000"
       d="M 306.41921,901.88866 C 258.8801,886.82801 208.22487,872.65987 173.40926,834.41339 139.39466,813.15069 117.8698,780.21371 91.878946,751.34592 63.224619,713.82125 47.121815,667.96709 34.43188,623.00868 25.441685,572.14791 32.642089,520.11482 30.604163,468.97742 50.302012,433.63821 45.129687,393.00499 67.095396,359.73373 95.184597,309.29263 139.62907,270.68797 183.1815,233.8815 c 32.77835,-27.82237 73.31917,-42.53946 114.07462,-54.20964 52.22807,-25.64362 111.28283,-12.47906 167.00115,-16.11376 51.2483,20.81957 110.41637,30.6395 149.71025,73.01591 18.70967,20.32183 40.64658,37.20598 61.18792,55.30261 24.53068,35.47993 -5.18149,78.67845 -33.59788,101.47442 -27.0107,24.50599 -66.19186,6.71671 -86.05724,-18.19517 C 539.38027,350.82419 516.04726,334.2677 491.96134,318.3285 446.05463,285.58848 388.4383,271.07207 332.4449,277.73725 c -30.85806,0.2499 -64.83484,-7.07552 -91.49479,13.63012 -39.01339,28.08656 -78.81803,62.7807 -89.06981,112.09978 -12.26792,42.12885 -3.68932,85.96891 -9.18397,128.96224 -4.12106,31.0404 7.53475,59.99102 20.72909,87.17565 24.3912,51.45839 60.53097,100.78423 114.81036,123.14947 35.78517,14.64823 71.51797,32.61562 109.94221,38.43489 37.6505,-0.39457 75.30324,-0.99553 112.99222,-0.67397 31.41212,-27.53081 83.30507,-29.10193 95.84308,-76.10161 27.14664,-36.70936 -3.77181,-85.07669 -47.6402,-71.45232 -47.85849,-1.65297 -96.59386,8.84916 -143.83394,-1.16261 -37.34637,-30.5458 17.98452,-78.72304 45.67937,-95.85734 39.1894,-25.02974 85.67012,-13.54755 129.20025,-15.70943 38.50081,0 77.00161,0 115.50242,0 25.3923,40.85232 21.50345,92.59357 8.79545,137.04242 -19.75189,29.12674 -7.61714,69.57496 -33.62975,96.53009 -30.09615,47.23781 -71.89027,86.16202 -114.89539,121.37798 -39.19052,27.44458 -88.47451,43.31735 -136.29228,33.53865 -36.90822,-3.7008 -80.01108,12.42973 -113.48001,-6.8326 z"
       id="path3108"
       inkscape:connector-curvature="0" />
  </g>
</svg>
