<?xml version="1.0" encoding="UTF-8" standalone="no"?>
<!-- Created with Inkscape (http://www.inkscape.org/) -->

<svg
   xmlns:dc="http://purl.org/dc/elements/1.1/"
   xmlns:cc="http://creativecommons.org/ns#"
   xmlns:rdf="http://www.w3.org/1999/02/22-rdf-syntax-ns#"
   xmlns:svg="http://www.w3.org/2000/svg"
   xmlns="http://www.w3.org/2000/svg"
   xmlns:sodipodi="http://sodipodi.sourceforge.net/DTD/sodipodi-0.dtd"
   xmlns:inkscape="http://www.inkscape.org/namespaces/inkscape"
   width="893.07196"
   height="466.81271"
   id="svg3117"
   version="1.1"
   inkscape:version="0.48.5 r10040"
   sodipodi:docname="MA.svg">
  <defs
     id="defs3119" />
  <sodipodi:namedview
     id="base"
     pagecolor="#ffffff"
     bordercolor="#666666"
     borderopacity="1.0"
     inkscape:pageopacity="0.0"
     inkscape:pageshadow="2"
     inkscape:zoom="0.49497475"
     inkscape:cx="397.50722"
     inkscape:cy="243.09708"
     inkscape:document-units="px"
     inkscape:current-layer="layer1"
     showgrid="false"
     inkscape:window-width="1600"
     inkscape:window-height="1137"
     inkscape:window-x="1672"
     inkscape:window-y="-8"
     inkscape:window-maximized="1"
     fit-margin-top="0"
     fit-margin-left="0"
     fit-margin-right="0"
     fit-margin-bottom="0" />
  <metadata
     id="metadata3122">
    <rdf:RDF>
      <cc:Work
         rdf:about="">
        <dc:format>image/svg+xml</dc:format>
        <dc:type
           rdf:resource="http://purl.org/dc/dcmitype/StillImage" />
        <dc:title />
      </cc:Work>
    </rdf:RDF>
  </metadata>
  <g
     inkscape:label="レイヤー 1"
     inkscape:groupmode="layer"
     id="layer1"
     transform="translate(52.936558,-256.7731)">
    <path
       style="fill:#000000"
       d="M -50.812409,715.54627 C -60.023988,618.72578 -38.548295,506.26475 -0.48706344,421.82574 5.5514856,378.39736 20.237009,334.83648 38.713729,294.45144 c 12.715161,-44.18169 64.266151,-21.78092 63.198031,16.35209 19.04396,36.7828 48.45096,73.84247 39.76405,117.92039 0.6567,31.88624 25.26623,51.10347 19.53681,85.28594 7.73192,20.8779 22.34834,67.71833 46.64305,32.05588 11.15933,-37.53659 20.40872,-77.20953 35.55009,-115.54802 4.9289,-39.23767 21.1139,-75.58058 30.82774,-113.93462 8.09013,-30.21458 59.57915,-93.80641 76.06124,-37.04009 15.04438,41.37946 20.10656,85.68943 35.35516,125.56901 14.13119,38.04831 22.68481,77.75475 38.32595,115.28526 15.43877,37.84088 13.6696,79.37672 31.73124,116.1905 4.02382,15.4638 6.03903,71.244 20.93111,30.60342 11.86278,-45.16335 26.92557,-90.39454 49.53283,-131.08501 4.00653,-32.69559 23.80482,-59.41439 27.57037,-91.19433 29.13804,-39.54517 27.3915,-83.78379 49.76924,-124.91016 1.63563,-44.65592 66.08913,-73.38249 77.07195,-17.55326 14.79358,45.23458 43.38219,84.08767 62.86814,127.33243 17.98521,35.34764 35.88906,70.86227 51.81118,107.22135 -4.58041,37.33274 48.28791,53.53801 38.89012,93.3618 17.7356,23.7134 -9.49035,31.95925 -10.68033,56.21734 -23.94465,39.28324 -50.56592,-4.30869 -55.0346,-31.45584 -21.20589,-29.24959 -24.1314,-84.53356 -72.34224,-72.55456 -43.53123,2.26893 -87.20873,0.36495 -130.82908,0.97532 -25.8647,38.21683 -21.63714,93.47534 -61.20369,123.01769 -29.62046,7.31825 -66.06137,-32.35293 -82.94357,12.45201 -39.86093,4.52607 -28.80766,-56.82346 -46.83482,-79.95677 -7.36095,-36.19179 -22.79876,-67.53536 -33.4645,-102.67089 -10.7329,-31.02377 -3.1979,-70.44121 -36.19698,-88.63526 -29.83211,14.84992 -15.58683,54.62908 -34.44461,76.65948 -7.26481,42.20608 -39.93213,81.99577 -45.44253,125.04732 -23.08979,18.00639 -32.6276,72.15708 -68.89633,57.4025 C 134.33424,684.23247 121.93907,653.17107 124.2141,621.87087 115.4052,588.01255 97.925425,558.33103 91.378262,522.61195 87.419896,501.02896 89.354818,455.91344 55.088741,468.30456 26.304274,547.88943 22.582747,624.54395 -5.4712551,694.93414 -9.9616041,704.65588 -46.49466,738.99236 -50.812409,715.54627 z M 688.18759,478.04628 c -20.69205,-23.13181 -24.91186,-73.26507 -51.15993,-82.27972 -26.45347,18.21824 -18.31344,59.4963 -35.92757,82.10694 10.99483,33.12125 66.0096,18.6407 87.62105,10.92631 l 0.50532,-5.42543 z"
       id="path3136"
       inkscape:connector-curvature="0"
       sodipodi:nodetypes="cccccccccccccccccccccccccccccccccccccccccccc" />
  </g>
</svg>
